<?xml version="1.0" encoding="UTF-8"?>
<svg width="168px" height="22px" viewBox="0 0 168 22" version="1.1" xmlns="http://www.w3.org/2000/svg" xmlns:xlink="http://www.w3.org/1999/xlink">
    <!-- Generator: Sketch 50.2 (55047) - http://www.bohemiancoding.com/sketch -->
    <title>Artboard</title>
    <desc>Created with Sketch.</desc>
    <defs></defs>
    <g id="Artboard" stroke="none" stroke-width="1" fill="none" fill-rule="evenodd">
        <path d="M0.184,5.998 C0.184,2.462 2.628,1.604 5.722,1.604 L12.56,1.604 L12.56,3.372 L6.06,3.372 C3.772,3.372 2.264,3.554 2.264,6.284 L2.264,16.814 C2.264,19.648 3.694,19.674 6.06,19.674 L12.56,19.674 L12.56,21.468 L5.722,21.468 C2.628,21.468 0.184,20.61 0.184,17.1 L0.184,5.998 Z M23.292,6.128 C26.776,6.128 28.622,7.61 28.622,10.496 L28.622,17.126 C28.622,20.012 26.802,21.468 23.292,21.468 L21.94,21.468 C18.43,21.468 16.662,20.012 16.662,17.126 L16.662,10.496 C16.662,7.584 18.43,6.128 21.94,6.128 L23.292,6.128 Z M26.542,10.548 C26.542,8.13 25.242,7.896 23.344,7.896 L21.914,7.896 C20.016,7.896 18.742,8.13 18.742,10.548 L18.742,16.866 C18.742,19.44 20.276,19.7 21.94,19.7 L23.318,19.7 C25.216,19.7 26.542,19.466 26.542,17.074 L26.542,10.548 Z M44.0340001,21.468 L44.0340001,10.496 C44.0340001,8.702 43.0980001,7.662 41.3560001,7.662 C39.4060001,7.662 37.0400001,9.144 36.1300001,10.522 L36.1300001,21.468 L34.0760001,21.468 L34.0760001,6.44 L35.7920001,6.44 L35.9480001,8.728 C37.6120001,6.96 39.9260001,5.998 41.9280001,5.998 C44.5020001,5.998 46.1140001,7.688 46.1140001,10.47 L46.1140001,21.468 L44.0340001,21.468 Z M59.4460001,6.18 L59.4460001,7.74 L54.8700001,7.74 L54.8700001,17.386 C54.8700001,18.79 55.1820001,19.7 56.7420001,19.7 L59.3940001,19.7 L59.4460001,21.468 L56.6640001,21.468 C54.0380001,21.468 52.8160001,20.194 52.8160001,17.386 L52.8160001,7.74 L50.5280001,7.74 L50.5280001,6.18 L52.8420001,6.18 L52.9460001,2.358 L54.8700001,2.358 L54.8700001,6.18 L59.4460001,6.18 Z M66.2260002,9.768 L67.0840002,8.572 C67.3960002,8.156 67.7340002,7.74 68.1500002,7.376 C68.9820002,6.674 70.1260002,6.128 71.8420002,6.128 L72.2580002,6.128 L72.2580002,7.896 L71.8420002,7.896 C70.3860002,7.896 69.5280002,8.208 68.7740002,8.832 C68.3840002,9.144 68.0460002,9.534 67.6560002,10.002 C67.2660002,10.47 66.8240002,11.016 66.3300002,11.64 L66.3300002,21.468 L64.2500002,21.468 L64.2500002,6.128 L65.9920002,6.128 L66.2260002,9.768 Z M78.4140002,0.668 L78.4140002,3.528 L76.3860002,3.528 L76.3860002,0.668 L78.4140002,0.668 Z M78.4140002,6.128 L78.4140002,21.468 L76.3860002,21.468 L76.3860002,6.128 L78.4140002,6.128 Z M91.6680003,6.128 C94.2160003,6.128 96.3740003,7.272 96.3740003,10.158 L96.3740003,17.282 C96.3740003,20.246 94.2940003,21.468 91.6680003,21.468 L89.0680003,21.468 C86.3120003,21.468 84.2840003,20.324 84.2840003,17.334 L84.2840003,0.668 L86.3120003,0.668 L86.3120003,7.48 C87.1440003,6.518 88.0540003,6.128 89.4320003,6.128 L91.6680003,6.128 Z M94.2680003,10.418 C94.2680003,8.884 93.6960003,8.234 92.8900003,7.948 C92.5000003,7.818 92.0060003,7.792 91.5120003,7.792 C91.0180003,7.766 90.4720003,7.792 89.9520003,7.792 C87.8980003,7.792 86.3380003,8.416 86.3380003,10.782 L86.3380003,17.074 C86.3380003,19.076 87.1960003,19.7 89.0680003,19.7 L91.2000003,19.7 C93.1500003,19.7 94.2680003,19.362 94.2680003,17.022 L94.2680003,10.418 Z M113.138,17.126 C113.138,20.012 111.318,21.468 107.808,21.468 L106.456,21.468 C102.946,21.468 101.178,20.012 101.178,17.126 L101.178,6.128 L103.258,6.128 L103.258,16.866 C103.258,19.44 104.792,19.7 106.456,19.7 L107.834,19.7 C109.732,19.7 111.058,19.466 111.058,17.074 L111.058,6.128 L113.138,6.128 L113.138,17.126 Z M125.846,6.18 L125.846,7.74 L121.27,7.74 L121.27,17.386 C121.27,18.79 121.582,19.7 123.142,19.7 L125.794,19.7 L125.846,21.468 L123.064,21.468 C120.438,21.468 119.216,20.194 119.216,17.386 L119.216,7.74 L116.928,7.74 L116.928,6.18 L119.242,6.18 L119.346,2.358 L121.27,2.358 L121.27,6.18 L125.846,6.18 Z M137.904,6.18 L137.904,7.74 L133.328,7.74 L133.328,17.386 C133.328,18.79 133.64,19.7 135.2,19.7 L137.852,19.7 L137.904,21.468 L135.122,21.468 C132.496,21.468 131.274,20.194 131.274,17.386 L131.274,7.74 L128.986,7.74 L128.986,6.18 L131.3,6.18 L131.404,2.358 L133.328,2.358 L133.328,6.18 L137.904,6.18 Z M148.818,6.128 C151.626,6.128 154.122,7.09 154.122,10.314 L154.122,11.094 C154.122,14.344 151.6,15.072 148.818,15.072 L144.008,15.072 C144.008,15.774 144.008,16.424 144.034,16.996 C144.06,17.542 144.112,18.036 144.294,18.452 C144.632,19.258 145.412,19.7 147.076,19.7 L153.108,19.7 L153.108,21.468 L147.076,21.468 C143.722,21.468 141.954,20.48 141.954,16.892 L141.954,10.314 C141.954,7.09 144.398,6.128 147.232,6.128 L148.818,6.128 Z M147.206,7.896 C145.178,7.896 144.06,8.234 144.06,10.548 L144.06,13.512 L148.818,13.512 C150.846,13.512 152.016,13.174 152.016,10.86 C152.016,8.338 151.184,7.896 148.844,7.896 L147.206,7.896 Z M161.422001,9.768 L162.280001,8.572 C162.592001,8.156 162.930001,7.74 163.346001,7.376 C164.178001,6.674 165.322001,6.128 167.038001,6.128 L167.454001,6.128 L167.454001,7.896 L167.038001,7.896 C165.582001,7.896 164.724001,8.208 163.970001,8.832 C163.580001,9.144 163.242001,9.534 162.852001,10.002 C162.462001,10.47 162.020001,11.016 161.526001,11.64 L161.526001,21.468 L159.446001,21.468 L159.446001,6.128 L161.188001,6.128 L161.422001,9.768 Z" id="Contributter" fill="#FFFFFF"></path>
    </g>
</svg>