<?xml version="1.0" encoding="UTF-8"?>
<svg width="200px" height="200px" viewBox="0 0 200 200" version="1.1" xmlns="http://www.w3.org/2000/svg" xmlns:xlink="http://www.w3.org/1999/xlink">
    <!-- Generator: Sketch 50.2 (55047) - http://www.bohemiancoding.com/sketch -->
    <title>logo_large</title>
    <desc>Created with Sketch.</desc>
    <defs>
        <path d="M108.066966,46.8810845 C116.846761,35.506113 119.855921,20.3025854 120.019925,3.43300955 C107.829636,3.18450003 78.0422537,6.99292947 70.353391,20.1714819 C65.1030334,9.9479286 57.0044408,1.27022192 44.7377475,0.581998688 C28.5338457,-0.32733932 23.2381493,15.3771209 11.2054271,22.0186708 C13.9755784,17.396785 14.8350585,12.2289609 10.9708962,7.74432837 C10.6384109,6.46348397 9.90543189,4.4689784 8.36027067,2.91726143 C5.88342296,0.430488943 2.25714994,0.022363062 2.25714994,0.022363062 C2.25714994,0.022363062 2.64700858,3.64629725 5.12357645,6.13279021 C6.53384037,7.54893112 8.31633114,8.29054617 9.5900186,8.66680465 C11.0324676,10.2777838 11.9792671,12.1719351 12.0447566,14.4283681 C12.1130448,16.7985731 11.1167084,19.0826803 9.92978057,21.0785836 C7.67710853,24.8663272 4.23443009,28.1489452 0.619631738,30.6407494 C-0.247964644,31.2386817 0.574292832,32.6637679 1.45056518,32.0599652 C4.23135153,30.1431712 7.27857393,27.4299727 9.623603,24.3449883 C19.9421227,32.5639727 20.2844035,47.5542127 29.0401302,58.3097274 C46.8485255,80.1858336 80.5787141,76.096748 98.5298426,65.605956 C116.440391,55.1383656 122.748376,46.6552176 122.748376,46.6552176 C122.748376,46.6552176 111.135739,48.6237261 108.066966,46.8810845 Z M32.2314856,27.1920857 C32.3193646,27.1926498 32.4229165,27.1934961 32.5337449,27.1940602 C32.4097626,27.1929319 32.310129,27.1923678 32.2314856,27.1920857 Z M32.6770383,27.1946015 C32.6873934,27.1946015 32.6983084,27.1948811 32.7092233,27.1948811 C32.6971889,27.1948811 32.6885129,27.1946015 32.6764785,27.1946015 L32.6759188,27.1946015 C27.0992331,27.1604978 27.1288993,18.557987 32.7016668,18.5442896 C38.3262102,18.5297536 38.3197732,27.2278666 32.6770383,27.1946015 Z" id="path-1"></path>
        <path d="M4.92929841,6.85623525 C6.28554749,3.62085927 5.28025514,0.117406075 5.28025514,0.117406075 C5.28025514,0.117406075 2.07490631,1.8594886 0.718097514,5.09542367 C-0.638711287,8.33079969 0.367140781,11.8339733 0.367140781,11.8339733 C0.367140781,11.8339733 3.57276949,10.0921704 4.92929841,6.85623525 Z" id="path-3"></path>
        <path d="M6.4725489,4.65878489 C9.97903761,4.47009655 12.6990922,2.04034987 12.6990922,2.04034987 C12.6990922,2.04034987 9.73359183,-0.0830228679 6.22710306,0.105106391 C2.7200546,0.293794727 0,2.72326187 0,2.72326187 C0,2.72326187 2.96550041,4.84719368 6.4725489,4.65878489 Z" id="path-5"></path>
    </defs>
    <g id="logo_large" stroke="none" stroke-width="1" fill="none" fill-rule="evenodd">
        <g id="Group-2" transform="translate(20.000000, 20.000000)">
            <circle id="Oval-2" fill="#FFFFFF" cx="80" cy="80" r="80"></circle>
            <g id="Group-5" transform="translate(16.000000, 49.000000)">
                <g id="Group-3">
                    <g id="Group" transform="translate(1.399349, 1.118153)">
                        <g id="Mask" fill="#FFFFFF" fill-rule="nonzero">
                            <path d="M108.066966,46.8810845 C116.846761,35.506113 119.855921,20.3025854 120.019925,3.43300955 C107.829636,3.18450003 78.0422537,6.99292947 70.353391,20.1714819 C65.1030334,9.9479286 57.0044408,1.27022192 44.7377475,0.581998688 C28.5338457,-0.32733932 23.2381493,15.3771209 11.2054271,22.0186708 C13.9755784,17.396785 14.8350585,12.2289609 10.9708962,7.74432837 C10.6384109,6.46348397 9.90543189,4.4689784 8.36027067,2.91726143 C5.88342296,0.430488943 2.25714994,0.022363062 2.25714994,0.022363062 C2.25714994,0.022363062 2.64700858,3.64629725 5.12357645,6.13279021 C6.53384037,7.54893112 8.31633114,8.29054617 9.5900186,8.66680465 C11.0324676,10.2777838 11.9792671,12.1719351 12.0447566,14.4283681 C12.1130448,16.7985731 11.1167084,19.0826803 9.92978057,21.0785836 C7.67710853,24.8663272 4.23443009,28.1489452 0.619631738,30.6407494 C-0.247964644,31.2386817 0.574292832,32.6637679 1.45056518,32.0599652 C4.23135153,30.1431712 7.27857393,27.4299727 9.623603,24.3449883 C19.9421227,32.5639727 20.2844035,47.5542127 29.0401302,58.3097274 C46.8485255,80.1858336 80.5787141,76.096748 98.5298426,65.605956 C116.440391,55.1383656 122.748376,46.6552176 122.748376,46.6552176 C122.748376,46.6552176 111.135739,48.6237261 108.066966,46.8810845 Z M32.2314856,27.1920857 C32.3193646,27.1926498 32.4229165,27.1934961 32.5337449,27.1940602 C32.4097626,27.1929319 32.310129,27.1923678 32.2314856,27.1920857 Z M32.6770383,27.1946015 C32.6873934,27.1946015 32.6983084,27.1948811 32.7092233,27.1948811 C32.6971889,27.1948811 32.6885129,27.1946015 32.6764785,27.1946015 L32.6759188,27.1946015 C27.0992331,27.1604978 27.1288993,18.557987 32.7016668,18.5442896 C38.3262102,18.5297536 38.3197732,27.2278666 32.6770383,27.1946015 Z" id="path-1"></path>
                        </g>
                        <g id="Group-2-Clipped">
                            <mask id="mask-2" fill="white">
                                <use xlink:href="#path-1"></use>
                            </mask>
                            <g id="path-1"></g>
                            <g id="Group-2" mask="url(#mask-2)">
                                <g transform="translate(-4.659565, -14.165211)" id="Group">
                                    <g transform="translate(0.297206, 0.207977)">
                                        <g transform="translate(1.843531, 0.277749)" fill-rule="nonzero" id="Rectangle-path">
                                            <rect fill="#196127" x="0" y="0.406236564" width="10.6157511" height="10.603176"></rect>
                                            <rect fill="#196127" x="0" y="13.1300477" width="10.6157511" height="10.603176"></rect>
                                            <rect fill="#7BC96F" x="0" y="25.8538588" width="10.6157511" height="10.603176"></rect>
                                            <rect fill="#C6E48B" x="0" y="38.57767" width="10.6157511" height="10.603176"></rect>
                                            <rect fill="#C6E48B" x="12.7389013" y="0.406236564" width="10.6157511" height="10.603176"></rect>
                                            <rect fill="#7BC96F" x="12.7389013" y="13.1300477" width="10.6157511" height="10.603176"></rect>
                                            <rect fill="#7BC96F" x="12.7389013" y="25.8538588" width="10.6157511" height="10.603176"></rect>
                                            <rect fill="#7BC96F" x="12.7389013" y="38.57767" width="10.6157511" height="10.603176"></rect>
                                            <rect fill="#196127" x="25.4778026" y="0.406236564" width="10.6157511" height="10.603176"></rect>
                                            <rect fill="#7BC96F" x="25.4778026" y="13.1300477" width="10.6157511" height="10.603176"></rect>
                                            <rect fill="#C6E48B" x="25.4778026" y="25.8538588" width="10.6157511" height="10.603176"></rect>
                                            <rect fill="#7BC96F" x="25.4778026" y="38.57767" width="10.6157511" height="10.603176"></rect>
                                            <rect fill="#7BC96F" x="38.2167039" y="0.406236564" width="10.6157511" height="10.603176"></rect>
                                            <rect fill="#C6E48B" x="38.2167039" y="13.1300477" width="10.6157511" height="10.603176"></rect>
                                            <rect fill="#7BC96F" x="38.2167039" y="25.8538588" width="10.6157511" height="10.603176"></rect>
                                            <rect fill="#C6E48B" x="38.2167039" y="38.57767" width="10.6157511" height="10.603176"></rect>
                                            <rect fill="#7BC96F" x="50.9556052" y="0.406236564" width="10.6157511" height="10.603176"></rect>
                                            <rect fill="#C6E48B" x="50.9556052" y="13.1300477" width="10.6157511" height="10.603176"></rect>
                                            <rect fill="#196127" x="50.9556052" y="25.8538588" width="10.6157511" height="10.603176"></rect>
                                            <rect fill="#C6E48B" x="50.9556052" y="38.57767" width="10.6157511" height="10.603176"></rect>
                                        </g>
                                        <g transform="translate(95.977055, 24.838843) rotate(-180.000000) translate(-95.977055, -24.838843) translate(64.728908, 0.219091)" fill-rule="nonzero" id="Rectangle-path">
                                            <rect fill="#196127" x="0" y="0" width="10.6157511" height="10.603176"></rect>
                                            <rect fill="#196127" x="0" y="12.7238111" width="10.6157511" height="10.603176"></rect>
                                            <rect fill="#196127" x="0" y="25.4476223" width="10.6157511" height="10.603176"></rect>
                                            <rect fill="#7BC96F" x="0" y="38.1714334" width="10.6157511" height="10.603176"></rect>
                                            <rect fill="#C6E48B" x="12.7389013" y="0" width="10.6157511" height="10.603176"></rect>
                                            <rect fill="#C6E48B" x="12.7389013" y="12.7238111" width="10.6157511" height="10.603176"></rect>
                                            <rect fill="#7BC96F" x="12.7389013" y="25.4476223" width="10.6157511" height="10.603176"></rect>
                                            <rect fill="#7BC96F" x="12.7389013" y="38.1714334" width="10.6157511" height="10.603176"></rect>
                                            <rect fill="#239A3B" x="25.4778026" y="0" width="10.6157511" height="10.603176"></rect>
                                            <rect fill="#196127" x="25.4778026" y="12.7238111" width="10.6157511" height="10.603176"></rect>
                                            <rect fill="#7BC96F" x="25.4778026" y="25.4476223" width="10.6157511" height="10.603176"></rect>
                                            <rect fill="#C6E48B" x="25.4778026" y="38.1714334" width="10.6157511" height="10.603176"></rect>
                                            <rect fill="#7BC96F" x="38.2167039" y="0" width="10.6157511" height="10.603176"></rect>
                                            <rect fill="#7BC96F" x="38.2167039" y="12.7238111" width="10.6157511" height="10.603176"></rect>
                                            <rect fill="#C6E48B" x="38.2167039" y="25.4476223" width="10.6157511" height="10.603176"></rect>
                                            <rect fill="#7BC96F" x="38.2167039" y="38.1714334" width="10.6157511" height="10.603176"></rect>
                                            <rect fill="#C6E48B" x="50.9556052" y="0" width="10.6157511" height="10.603176"></rect>
                                            <rect fill="#7BC96F" x="50.9556052" y="12.7238111" width="10.6157511" height="10.603176"></rect>
                                            <rect fill="#C6E48B" x="50.9556052" y="25.4476223" width="10.6157511" height="10.603176"></rect>
                                            <rect fill="#196127" x="50.9556052" y="38.1714334" width="10.6157511" height="10.603176"></rect>
                                        </g>
                                        <g transform="translate(32.166740, 82.418632) rotate(-180.000000) translate(-32.166740, -82.418632) translate(0.918593, 51.643942)" fill-rule="nonzero" id="Rectangle-path">
                                            <rect fill="#196127" x="0" y="0" width="10.6157511" height="10.603176"></rect>
                                            <rect fill="#196127" x="0" y="12.7238111" width="10.6157511" height="10.603176"></rect>
                                            <rect fill="#196127" x="0" y="25.4476223" width="10.6157511" height="10.603176"></rect>
                                            <rect fill="#7BC96F" x="0" y="38.1714334" width="10.6157511" height="10.603176"></rect>
                                            <rect fill="#C6E48B" x="0" y="50.8952445" width="10.6157511" height="10.603176"></rect>
                                            <rect fill="#C6E48B" x="12.7389013" y="0" width="10.6157511" height="10.603176"></rect>
                                            <rect fill="#C6E48B" x="12.7389013" y="12.7238111" width="10.6157511" height="10.603176"></rect>
                                            <rect fill="#7BC96F" x="12.7389013" y="25.4476223" width="10.6157511" height="10.603176"></rect>
                                            <rect fill="#7BC96F" x="12.7389013" y="38.1714334" width="10.6157511" height="10.603176"></rect>
                                            <rect fill="#7BC96F" x="12.7389013" y="50.8952445" width="10.6157511" height="10.603176"></rect>
                                            <rect fill="#239A3B" x="25.4778026" y="0" width="10.6157511" height="10.603176"></rect>
                                            <rect fill="#196127" x="25.4778026" y="12.7238111" width="10.6157511" height="10.603176"></rect>
                                            <rect fill="#7BC96F" x="25.4778026" y="25.4476223" width="10.6157511" height="10.603176"></rect>
                                            <rect fill="#C6E48B" x="25.4778026" y="38.1714334" width="10.6157511" height="10.603176"></rect>
                                            <rect fill="#7BC96F" x="25.4778026" y="50.8952445" width="10.6157511" height="10.603176"></rect>
                                            <rect fill="#7BC96F" x="38.2167039" y="0" width="10.6157511" height="10.603176"></rect>
                                            <rect fill="#7BC96F" x="38.2167039" y="12.7238111" width="10.6157511" height="10.603176"></rect>
                                            <rect fill="#C6E48B" x="38.2167039" y="25.4476223" width="10.6157511" height="10.603176"></rect>
                                            <rect fill="#7BC96F" x="38.2167039" y="38.1714334" width="10.6157511" height="10.603176"></rect>
                                            <rect fill="#C6E48B" x="38.2167039" y="50.8952445" width="10.6157511" height="10.603176"></rect>
                                            <rect fill="#C6E48B" x="50.9556052" y="0" width="10.6157511" height="10.603176"></rect>
                                            <rect fill="#7BC96F" x="50.9556052" y="12.7238111" width="10.6157511" height="10.603176"></rect>
                                            <rect fill="#C6E48B" x="50.9556052" y="25.4476223" width="10.6157511" height="10.603176"></rect>
                                            <rect fill="#196127" x="50.9556052" y="38.1714334" width="10.6157511" height="10.603176"></rect>
                                            <rect fill="#C6E48B" x="50.9556052" y="50.8952445" width="10.6157511" height="10.603176"></rect>
                                        </g>
                                        <g transform="translate(65.653845, 51.694901)" fill-rule="nonzero" id="Rectangle-path">
                                            <rect fill="#196127" x="0" y="0" width="10.6157511" height="10.603176"></rect>
                                            <rect fill="#196127" x="0" y="12.7238111" width="10.6157511" height="10.603176"></rect>
                                            <rect fill="#196127" x="0" y="25.4476223" width="10.6157511" height="10.603176"></rect>
                                            <rect fill="#7BC96F" x="0" y="38.1714334" width="10.6157511" height="10.603176"></rect>
                                            <rect fill="#C6E48B" x="0" y="50.8952445" width="10.6157511" height="10.603176"></rect>
                                            <rect fill="#C6E48B" x="12.7389013" y="0" width="10.6157511" height="10.603176"></rect>
                                            <rect fill="#C6E48B" x="12.7389013" y="12.7238111" width="10.6157511" height="10.603176"></rect>
                                            <rect fill="#7BC96F" x="12.7389013" y="25.4476223" width="10.6157511" height="10.603176"></rect>
                                            <rect fill="#7BC96F" x="12.7389013" y="38.1714334" width="10.6157511" height="10.603176"></rect>
                                            <rect fill="#7BC96F" x="12.7389013" y="50.8952445" width="10.6157511" height="10.603176"></rect>
                                            <rect fill="#239A3B" x="25.4778026" y="0" width="10.6157511" height="10.603176"></rect>
                                            <rect fill="#196127" x="25.4778026" y="12.7238111" width="10.6157511" height="10.603176"></rect>
                                            <rect fill="#7BC96F" x="25.4778026" y="25.4476223" width="10.6157511" height="10.603176"></rect>
                                            <rect fill="#C6E48B" x="25.4778026" y="38.1714334" width="10.6157511" height="10.603176"></rect>
                                            <rect fill="#7BC96F" x="25.4778026" y="50.8952445" width="10.6157511" height="10.603176"></rect>
                                            <rect fill="#7BC96F" x="38.2167039" y="0" width="10.6157511" height="10.603176"></rect>
                                            <rect fill="#7BC96F" x="38.2167039" y="12.7238111" width="10.6157511" height="10.603176"></rect>
                                            <rect fill="#C6E48B" x="38.2167039" y="25.4476223" width="10.6157511" height="10.603176"></rect>
                                            <rect fill="#7BC96F" x="38.2167039" y="38.1714334" width="10.6157511" height="10.603176"></rect>
                                            <rect fill="#C6E48B" x="38.2167039" y="50.8952445" width="10.6157511" height="10.603176"></rect>
                                            <rect fill="#C6E48B" x="50.9556052" y="0" width="10.6157511" height="10.603176"></rect>
                                            <rect fill="#7BC96F" x="50.9556052" y="12.7238111" width="10.6157511" height="10.603176"></rect>
                                            <rect fill="#C6E48B" x="50.9556052" y="25.4476223" width="10.6157511" height="10.603176"></rect>
                                            <rect fill="#196127" x="50.9556052" y="38.1714334" width="10.6157511" height="10.603176"></rect>
                                            <rect fill="#C6E48B" x="50.9556052" y="50.8952445" width="10.6157511" height="10.603176"></rect>
                                        </g>
                                    </g>
                                </g>
                            </g>
                        </g>
                    </g>
                    <g id="Group" transform="translate(14.833099, 0.000000)">
                        <g id="Mask" fill="#FFFFFF" fill-rule="nonzero">
                            <path d="M4.92929841,6.85623525 C6.28554749,3.62085927 5.28025514,0.117406075 5.28025514,0.117406075 C5.28025514,0.117406075 2.07490631,1.8594886 0.718097514,5.09542367 C-0.638711287,8.33079969 0.367140781,11.8339733 0.367140781,11.8339733 C0.367140781,11.8339733 3.57276949,10.0921704 4.92929841,6.85623525 Z" id="path-3"></path>
                        </g>
                        <g id="Group-2-Clipped">
                            <mask id="mask-4" fill="white">
                                <use xlink:href="#path-3"></use>
                            </mask>
                            <g id="path-3"></g>
                            <g id="Group-2" mask="url(#mask-4)">
                                <g transform="translate(-18.272619, -12.933453)" id="Group">
                                    <g transform="translate(0.476509, 0.094372)">
                                        <g transform="translate(1.843531, 0.277749)" fill-rule="nonzero" id="Rectangle-path">
                                            <rect fill="#196127" x="0" y="0.406236564" width="10.6157511" height="10.603176"></rect>
                                            <rect fill="#196127" x="0" y="13.1300477" width="10.6157511" height="10.603176"></rect>
                                            <rect fill="#7BC96F" x="0" y="25.8538588" width="10.6157511" height="10.603176"></rect>
                                            <rect fill="#C6E48B" x="0" y="38.57767" width="10.6157511" height="10.603176"></rect>
                                            <rect fill="#C6E48B" x="12.7389013" y="0.406236564" width="10.6157511" height="10.603176"></rect>
                                            <rect fill="#7BC96F" x="12.7389013" y="13.1300477" width="10.6157511" height="10.603176"></rect>
                                            <rect fill="#7BC96F" x="12.7389013" y="25.8538588" width="10.6157511" height="10.603176"></rect>
                                            <rect fill="#7BC96F" x="12.7389013" y="38.57767" width="10.6157511" height="10.603176"></rect>
                                            <rect fill="#196127" x="25.4778026" y="0.406236564" width="10.6157511" height="10.603176"></rect>
                                            <rect fill="#7BC96F" x="25.4778026" y="13.1300477" width="10.6157511" height="10.603176"></rect>
                                            <rect fill="#C6E48B" x="25.4778026" y="25.8538588" width="10.6157511" height="10.603176"></rect>
                                            <rect fill="#7BC96F" x="25.4778026" y="38.57767" width="10.6157511" height="10.603176"></rect>
                                            <rect fill="#7BC96F" x="38.2167039" y="0.406236564" width="10.6157511" height="10.603176"></rect>
                                            <rect fill="#C6E48B" x="38.2167039" y="13.1300477" width="10.6157511" height="10.603176"></rect>
                                            <rect fill="#7BC96F" x="38.2167039" y="25.8538588" width="10.6157511" height="10.603176"></rect>
                                            <rect fill="#C6E48B" x="38.2167039" y="38.57767" width="10.6157511" height="10.603176"></rect>
                                            <rect fill="#7BC96F" x="50.9556052" y="0.406236564" width="10.6157511" height="10.603176"></rect>
                                            <rect fill="#C6E48B" x="50.9556052" y="13.1300477" width="10.6157511" height="10.603176"></rect>
                                            <rect fill="#196127" x="50.9556052" y="25.8538588" width="10.6157511" height="10.603176"></rect>
                                            <rect fill="#C6E48B" x="50.9556052" y="38.57767" width="10.6157511" height="10.603176"></rect>
                                        </g>
                                        <g transform="translate(95.977055, 24.838843) rotate(-180.000000) translate(-95.977055, -24.838843) translate(64.728908, 0.219091)" fill-rule="nonzero" id="Rectangle-path">
                                            <rect fill="#196127" x="0" y="0" width="10.6157511" height="10.603176"></rect>
                                            <rect fill="#196127" x="0" y="12.7238111" width="10.6157511" height="10.603176"></rect>
                                            <rect fill="#196127" x="0" y="25.4476223" width="10.6157511" height="10.603176"></rect>
                                            <rect fill="#7BC96F" x="0" y="38.1714334" width="10.6157511" height="10.603176"></rect>
                                            <rect fill="#C6E48B" x="12.7389013" y="0" width="10.6157511" height="10.603176"></rect>
                                            <rect fill="#C6E48B" x="12.7389013" y="12.7238111" width="10.6157511" height="10.603176"></rect>
                                            <rect fill="#7BC96F" x="12.7389013" y="25.4476223" width="10.6157511" height="10.603176"></rect>
                                            <rect fill="#7BC96F" x="12.7389013" y="38.1714334" width="10.6157511" height="10.603176"></rect>
                                            <rect fill="#239A3B" x="25.4778026" y="0" width="10.6157511" height="10.603176"></rect>
                                            <rect fill="#196127" x="25.4778026" y="12.7238111" width="10.6157511" height="10.603176"></rect>
                                            <rect fill="#7BC96F" x="25.4778026" y="25.4476223" width="10.6157511" height="10.603176"></rect>
                                            <rect fill="#C6E48B" x="25.4778026" y="38.1714334" width="10.6157511" height="10.603176"></rect>
                                            <rect fill="#7BC96F" x="38.2167039" y="0" width="10.6157511" height="10.603176"></rect>
                                            <rect fill="#7BC96F" x="38.2167039" y="12.7238111" width="10.6157511" height="10.603176"></rect>
                                            <rect fill="#C6E48B" x="38.2167039" y="25.4476223" width="10.6157511" height="10.603176"></rect>
                                            <rect fill="#7BC96F" x="38.2167039" y="38.1714334" width="10.6157511" height="10.603176"></rect>
                                            <rect fill="#C6E48B" x="50.9556052" y="0" width="10.6157511" height="10.603176"></rect>
                                            <rect fill="#7BC96F" x="50.9556052" y="12.7238111" width="10.6157511" height="10.603176"></rect>
                                            <rect fill="#C6E48B" x="50.9556052" y="25.4476223" width="10.6157511" height="10.603176"></rect>
                                            <rect fill="#196127" x="50.9556052" y="38.1714334" width="10.6157511" height="10.603176"></rect>
                                        </g>
                                        <g transform="translate(32.166740, 82.418632) rotate(-180.000000) translate(-32.166740, -82.418632) translate(0.918593, 51.643942)" fill-rule="nonzero" id="Rectangle-path">
                                            <rect fill="#196127" x="0" y="0" width="10.6157511" height="10.603176"></rect>
                                            <rect fill="#196127" x="0" y="12.7238111" width="10.6157511" height="10.603176"></rect>
                                            <rect fill="#196127" x="0" y="25.4476223" width="10.6157511" height="10.603176"></rect>
                                            <rect fill="#7BC96F" x="0" y="38.1714334" width="10.6157511" height="10.603176"></rect>
                                            <rect fill="#C6E48B" x="0" y="50.8952445" width="10.6157511" height="10.603176"></rect>
                                            <rect fill="#C6E48B" x="12.7389013" y="0" width="10.6157511" height="10.603176"></rect>
                                            <rect fill="#C6E48B" x="12.7389013" y="12.7238111" width="10.6157511" height="10.603176"></rect>
                                            <rect fill="#7BC96F" x="12.7389013" y="25.4476223" width="10.6157511" height="10.603176"></rect>
                                            <rect fill="#7BC96F" x="12.7389013" y="38.1714334" width="10.6157511" height="10.603176"></rect>
                                            <rect fill="#7BC96F" x="12.7389013" y="50.8952445" width="10.6157511" height="10.603176"></rect>
                                            <rect fill="#239A3B" x="25.4778026" y="0" width="10.6157511" height="10.603176"></rect>
                                            <rect fill="#196127" x="25.4778026" y="12.7238111" width="10.6157511" height="10.603176"></rect>
                                            <rect fill="#7BC96F" x="25.4778026" y="25.4476223" width="10.6157511" height="10.603176"></rect>
                                            <rect fill="#C6E48B" x="25.4778026" y="38.1714334" width="10.6157511" height="10.603176"></rect>
                                            <rect fill="#7BC96F" x="25.4778026" y="50.8952445" width="10.6157511" height="10.603176"></rect>
                                            <rect fill="#7BC96F" x="38.2167039" y="0" width="10.6157511" height="10.603176"></rect>
                                            <rect fill="#7BC96F" x="38.2167039" y="12.7238111" width="10.6157511" height="10.603176"></rect>
                                            <rect fill="#C6E48B" x="38.2167039" y="25.4476223" width="10.6157511" height="10.603176"></rect>
                                            <rect fill="#7BC96F" x="38.2167039" y="38.1714334" width="10.6157511" height="10.603176"></rect>
                                            <rect fill="#C6E48B" x="38.2167039" y="50.8952445" width="10.6157511" height="10.603176"></rect>
                                            <rect fill="#C6E48B" x="50.9556052" y="0" width="10.6157511" height="10.603176"></rect>
                                            <rect fill="#7BC96F" x="50.9556052" y="12.7238111" width="10.6157511" height="10.603176"></rect>
                                            <rect fill="#C6E48B" x="50.9556052" y="25.4476223" width="10.6157511" height="10.603176"></rect>
                                            <rect fill="#196127" x="50.9556052" y="38.1714334" width="10.6157511" height="10.603176"></rect>
                                            <rect fill="#C6E48B" x="50.9556052" y="50.8952445" width="10.6157511" height="10.603176"></rect>
                                        </g>
                                        <g transform="translate(65.653845, 51.694901)" fill-rule="nonzero" id="Rectangle-path">
                                            <rect fill="#196127" x="0" y="0" width="10.6157511" height="10.603176"></rect>
                                            <rect fill="#196127" x="0" y="12.7238111" width="10.6157511" height="10.603176"></rect>
                                            <rect fill="#196127" x="0" y="25.4476223" width="10.6157511" height="10.603176"></rect>
                                            <rect fill="#7BC96F" x="0" y="38.1714334" width="10.6157511" height="10.603176"></rect>
                                            <rect fill="#C6E48B" x="0" y="50.8952445" width="10.6157511" height="10.603176"></rect>
                                            <rect fill="#C6E48B" x="12.7389013" y="0" width="10.6157511" height="10.603176"></rect>
                                            <rect fill="#C6E48B" x="12.7389013" y="12.7238111" width="10.6157511" height="10.603176"></rect>
                                            <rect fill="#7BC96F" x="12.7389013" y="25.4476223" width="10.6157511" height="10.603176"></rect>
                                            <rect fill="#7BC96F" x="12.7389013" y="38.1714334" width="10.6157511" height="10.603176"></rect>
                                            <rect fill="#7BC96F" x="12.7389013" y="50.8952445" width="10.6157511" height="10.603176"></rect>
                                            <rect fill="#239A3B" x="25.4778026" y="0" width="10.6157511" height="10.603176"></rect>
                                            <rect fill="#196127" x="25.4778026" y="12.7238111" width="10.6157511" height="10.603176"></rect>
                                            <rect fill="#7BC96F" x="25.4778026" y="25.4476223" width="10.6157511" height="10.603176"></rect>
                                            <rect fill="#C6E48B" x="25.4778026" y="38.1714334" width="10.6157511" height="10.603176"></rect>
                                            <rect fill="#7BC96F" x="25.4778026" y="50.8952445" width="10.6157511" height="10.603176"></rect>
                                            <rect fill="#7BC96F" x="38.2167039" y="0" width="10.6157511" height="10.603176"></rect>
                                            <rect fill="#7BC96F" x="38.2167039" y="12.7238111" width="10.6157511" height="10.603176"></rect>
                                            <rect fill="#C6E48B" x="38.2167039" y="25.4476223" width="10.6157511" height="10.603176"></rect>
                                            <rect fill="#7BC96F" x="38.2167039" y="38.1714334" width="10.6157511" height="10.603176"></rect>
                                            <rect fill="#C6E48B" x="38.2167039" y="50.8952445" width="10.6157511" height="10.603176"></rect>
                                            <rect fill="#C6E48B" x="50.9556052" y="0" width="10.6157511" height="10.603176"></rect>
                                            <rect fill="#7BC96F" x="50.9556052" y="12.7238111" width="10.6157511" height="10.603176"></rect>
                                            <rect fill="#C6E48B" x="50.9556052" y="25.4476223" width="10.6157511" height="10.603176"></rect>
                                            <rect fill="#196127" x="50.9556052" y="38.1714334" width="10.6157511" height="10.603176"></rect>
                                            <rect fill="#C6E48B" x="50.9556052" y="50.8952445" width="10.6157511" height="10.603176"></rect>
                                        </g>
                                    </g>
                                </g>
                            </g>
                        </g>
                    </g>
                    <g id="Group" transform="translate(0.000000, 11.740608)">
                        <g id="Mask" fill="#FFFFFF" fill-rule="nonzero">
                            <path d="M6.4725489,4.65878489 C9.97903761,4.47009655 12.6990922,2.04034987 12.6990922,2.04034987 C12.6990922,2.04034987 9.73359183,-0.0830228679 6.22710306,0.105106391 C2.7200546,0.293794727 0,2.72326187 0,2.72326187 C0,2.72326187 2.96550041,4.84719368 6.4725489,4.65878489 Z" id="path-5"></path>
                        </g>
                        <g id="Group-2-Clipped">
                            <mask id="mask-6" fill="white">
                                <use xlink:href="#path-5"></use>
                            </mask>
                            <g id="path-5"></g>
                            <g id="Group-2" mask="url(#mask-6)">
                                <g transform="translate(-3.422014, -24.635149)" id="Group">
                                    <g transform="translate(0.459004, 0.055460)">
                                        <g transform="translate(1.843531, 0.277749)" fill-rule="nonzero" id="Rectangle-path">
                                            <rect fill="#196127" x="0" y="0.406236564" width="10.6157511" height="10.603176"></rect>
                                            <rect fill="#196127" x="0" y="13.1300477" width="10.6157511" height="10.603176"></rect>
                                            <rect fill="#7BC96F" x="0" y="25.8538588" width="10.6157511" height="10.603176"></rect>
                                            <rect fill="#C6E48B" x="0" y="38.57767" width="10.6157511" height="10.603176"></rect>
                                            <rect fill="#C6E48B" x="12.7389013" y="0.406236564" width="10.6157511" height="10.603176"></rect>
                                            <rect fill="#7BC96F" x="12.7389013" y="13.1300477" width="10.6157511" height="10.603176"></rect>
                                            <rect fill="#7BC96F" x="12.7389013" y="25.8538588" width="10.6157511" height="10.603176"></rect>
                                            <rect fill="#7BC96F" x="12.7389013" y="38.57767" width="10.6157511" height="10.603176"></rect>
                                            <rect fill="#196127" x="25.4778026" y="0.406236564" width="10.6157511" height="10.603176"></rect>
                                            <rect fill="#7BC96F" x="25.4778026" y="13.1300477" width="10.6157511" height="10.603176"></rect>
                                            <rect fill="#C6E48B" x="25.4778026" y="25.8538588" width="10.6157511" height="10.603176"></rect>
                                            <rect fill="#7BC96F" x="25.4778026" y="38.57767" width="10.6157511" height="10.603176"></rect>
                                            <rect fill="#7BC96F" x="38.2167039" y="0.406236564" width="10.6157511" height="10.603176"></rect>
                                            <rect fill="#C6E48B" x="38.2167039" y="13.1300477" width="10.6157511" height="10.603176"></rect>
                                            <rect fill="#7BC96F" x="38.2167039" y="25.8538588" width="10.6157511" height="10.603176"></rect>
                                            <rect fill="#C6E48B" x="38.2167039" y="38.57767" width="10.6157511" height="10.603176"></rect>
                                            <rect fill="#7BC96F" x="50.9556052" y="0.406236564" width="10.6157511" height="10.603176"></rect>
                                            <rect fill="#C6E48B" x="50.9556052" y="13.1300477" width="10.6157511" height="10.603176"></rect>
                                            <rect fill="#196127" x="50.9556052" y="25.8538588" width="10.6157511" height="10.603176"></rect>
                                            <rect fill="#C6E48B" x="50.9556052" y="38.57767" width="10.6157511" height="10.603176"></rect>
                                        </g>
                                        <g transform="translate(95.977055, 24.838843) rotate(-180.000000) translate(-95.977055, -24.838843) translate(64.728908, 0.219091)" fill-rule="nonzero" id="Rectangle-path">
                                            <rect fill="#196127" x="0" y="0" width="10.6157511" height="10.603176"></rect>
                                            <rect fill="#196127" x="0" y="12.7238111" width="10.6157511" height="10.603176"></rect>
                                            <rect fill="#196127" x="0" y="25.4476223" width="10.6157511" height="10.603176"></rect>
                                            <rect fill="#7BC96F" x="0" y="38.1714334" width="10.6157511" height="10.603176"></rect>
                                            <rect fill="#C6E48B" x="12.7389013" y="0" width="10.6157511" height="10.603176"></rect>
                                            <rect fill="#C6E48B" x="12.7389013" y="12.7238111" width="10.6157511" height="10.603176"></rect>
                                            <rect fill="#7BC96F" x="12.7389013" y="25.4476223" width="10.6157511" height="10.603176"></rect>
                                            <rect fill="#7BC96F" x="12.7389013" y="38.1714334" width="10.6157511" height="10.603176"></rect>
                                            <rect fill="#239A3B" x="25.4778026" y="0" width="10.6157511" height="10.603176"></rect>
                                            <rect fill="#196127" x="25.4778026" y="12.7238111" width="10.6157511" height="10.603176"></rect>
                                            <rect fill="#7BC96F" x="25.4778026" y="25.4476223" width="10.6157511" height="10.603176"></rect>
                                            <rect fill="#C6E48B" x="25.4778026" y="38.1714334" width="10.6157511" height="10.603176"></rect>
                                            <rect fill="#7BC96F" x="38.2167039" y="0" width="10.6157511" height="10.603176"></rect>
                                            <rect fill="#7BC96F" x="38.2167039" y="12.7238111" width="10.6157511" height="10.603176"></rect>
                                            <rect fill="#C6E48B" x="38.2167039" y="25.4476223" width="10.6157511" height="10.603176"></rect>
                                            <rect fill="#7BC96F" x="38.2167039" y="38.1714334" width="10.6157511" height="10.603176"></rect>
                                            <rect fill="#C6E48B" x="50.9556052" y="0" width="10.6157511" height="10.603176"></rect>
                                            <rect fill="#7BC96F" x="50.9556052" y="12.7238111" width="10.6157511" height="10.603176"></rect>
                                            <rect fill="#C6E48B" x="50.9556052" y="25.4476223" width="10.6157511" height="10.603176"></rect>
                                            <rect fill="#196127" x="50.9556052" y="38.1714334" width="10.6157511" height="10.603176"></rect>
                                        </g>
                                        <g transform="translate(32.166740, 82.418632) rotate(-180.000000) translate(-32.166740, -82.418632) translate(0.918593, 51.643942)" fill-rule="nonzero" id="Rectangle-path">
                                            <rect fill="#196127" x="0" y="0" width="10.6157511" height="10.603176"></rect>
                                            <rect fill="#196127" x="0" y="12.7238111" width="10.6157511" height="10.603176"></rect>
                                            <rect fill="#196127" x="0" y="25.4476223" width="10.6157511" height="10.603176"></rect>
                                            <rect fill="#7BC96F" x="0" y="38.1714334" width="10.6157511" height="10.603176"></rect>
                                            <rect fill="#C6E48B" x="0" y="50.8952445" width="10.6157511" height="10.603176"></rect>
                                            <rect fill="#C6E48B" x="12.7389013" y="0" width="10.6157511" height="10.603176"></rect>
                                            <rect fill="#C6E48B" x="12.7389013" y="12.7238111" width="10.6157511" height="10.603176"></rect>
                                            <rect fill="#7BC96F" x="12.7389013" y="25.4476223" width="10.6157511" height="10.603176"></rect>
                                            <rect fill="#7BC96F" x="12.7389013" y="38.1714334" width="10.6157511" height="10.603176"></rect>
                                            <rect fill="#7BC96F" x="12.7389013" y="50.8952445" width="10.6157511" height="10.603176"></rect>
                                            <rect fill="#239A3B" x="25.4778026" y="0" width="10.6157511" height="10.603176"></rect>
                                            <rect fill="#196127" x="25.4778026" y="12.7238111" width="10.6157511" height="10.603176"></rect>
                                            <rect fill="#7BC96F" x="25.4778026" y="25.4476223" width="10.6157511" height="10.603176"></rect>
                                            <rect fill="#C6E48B" x="25.4778026" y="38.1714334" width="10.6157511" height="10.603176"></rect>
                                            <rect fill="#7BC96F" x="25.4778026" y="50.8952445" width="10.6157511" height="10.603176"></rect>
                                            <rect fill="#7BC96F" x="38.2167039" y="0" width="10.6157511" height="10.603176"></rect>
                                            <rect fill="#7BC96F" x="38.2167039" y="12.7238111" width="10.6157511" height="10.603176"></rect>
                                            <rect fill="#C6E48B" x="38.2167039" y="25.4476223" width="10.6157511" height="10.603176"></rect>
                                            <rect fill="#7BC96F" x="38.2167039" y="38.1714334" width="10.6157511" height="10.603176"></rect>
                                            <rect fill="#C6E48B" x="38.2167039" y="50.8952445" width="10.6157511" height="10.603176"></rect>
                                            <rect fill="#C6E48B" x="50.9556052" y="0" width="10.6157511" height="10.603176"></rect>
                                            <rect fill="#7BC96F" x="50.9556052" y="12.7238111" width="10.6157511" height="10.603176"></rect>
                                            <rect fill="#C6E48B" x="50.9556052" y="25.4476223" width="10.6157511" height="10.603176"></rect>
                                            <rect fill="#196127" x="50.9556052" y="38.1714334" width="10.6157511" height="10.603176"></rect>
                                            <rect fill="#C6E48B" x="50.9556052" y="50.8952445" width="10.6157511" height="10.603176"></rect>
                                        </g>
                                        <g transform="translate(65.653845, 51.694901)" fill-rule="nonzero" id="Rectangle-path">
                                            <rect fill="#196127" x="0" y="0" width="10.6157511" height="10.603176"></rect>
                                            <rect fill="#196127" x="0" y="12.7238111" width="10.6157511" height="10.603176"></rect>
                                            <rect fill="#196127" x="0" y="25.4476223" width="10.6157511" height="10.603176"></rect>
                                            <rect fill="#7BC96F" x="0" y="38.1714334" width="10.6157511" height="10.603176"></rect>
                                            <rect fill="#C6E48B" x="0" y="50.8952445" width="10.6157511" height="10.603176"></rect>
                                            <rect fill="#C6E48B" x="12.7389013" y="0" width="10.6157511" height="10.603176"></rect>
                                            <rect fill="#C6E48B" x="12.7389013" y="12.7238111" width="10.6157511" height="10.603176"></rect>
                                            <rect fill="#7BC96F" x="12.7389013" y="25.4476223" width="10.6157511" height="10.603176"></rect>
                                            <rect fill="#7BC96F" x="12.7389013" y="38.1714334" width="10.6157511" height="10.603176"></rect>
                                            <rect fill="#7BC96F" x="12.7389013" y="50.8952445" width="10.6157511" height="10.603176"></rect>
                                            <rect fill="#239A3B" x="25.4778026" y="0" width="10.6157511" height="10.603176"></rect>
                                            <rect fill="#196127" x="25.4778026" y="12.7238111" width="10.6157511" height="10.603176"></rect>
                                            <rect fill="#7BC96F" x="25.4778026" y="25.4476223" width="10.6157511" height="10.603176"></rect>
                                            <rect fill="#C6E48B" x="25.4778026" y="38.1714334" width="10.6157511" height="10.603176"></rect>
                                            <rect fill="#7BC96F" x="25.4778026" y="50.8952445" width="10.6157511" height="10.603176"></rect>
                                            <rect fill="#7BC96F" x="38.2167039" y="0" width="10.6157511" height="10.603176"></rect>
                                            <rect fill="#7BC96F" x="38.2167039" y="12.7238111" width="10.6157511" height="10.603176"></rect>
                                            <rect fill="#C6E48B" x="38.2167039" y="25.4476223" width="10.6157511" height="10.603176"></rect>
                                            <rect fill="#7BC96F" x="38.2167039" y="38.1714334" width="10.6157511" height="10.603176"></rect>
                                            <rect fill="#C6E48B" x="38.2167039" y="50.8952445" width="10.6157511" height="10.603176"></rect>
                                            <rect fill="#C6E48B" x="50.9556052" y="0" width="10.6157511" height="10.603176"></rect>
                                            <rect fill="#7BC96F" x="50.9556052" y="12.7238111" width="10.6157511" height="10.603176"></rect>
                                            <rect fill="#C6E48B" x="50.9556052" y="25.4476223" width="10.6157511" height="10.603176"></rect>
                                            <rect fill="#196127" x="50.9556052" y="38.1714334" width="10.6157511" height="10.603176"></rect>
                                            <rect fill="#C6E48B" x="50.9556052" y="50.8952445" width="10.6157511" height="10.603176"></rect>
                                        </g>
                                    </g>
                                </g>
                            </g>
                        </g>
                    </g>
                </g>
                <ellipse id="Oval" fill="#FFFFFF" fill-rule="nonzero" cx="34.389495" cy="24.3727312" rx="4.6293551" ry="4.61105725"></ellipse>
            </g>
        </g>
    </g>
</svg>