<?xml version="1.0" encoding="UTF-8"?>
<svg width="284px" height="59px" viewBox="0 0 284 59" version="1.1" xmlns="http://www.w3.org/2000/svg" xmlns:xlink="http://www.w3.org/1999/xlink">
    <!-- Generator: Sketch 48.1 (47250) - http://www.bohemiancoding.com/sketch -->
    <title>logo</title>
    <desc>Created with Sketch.</desc>
    <defs>
        <path d="M83.8974722,36.5379085 C90.7136407,27.672549 93.0497933,15.8233115 93.1771171,2.67559913 C83.713222,2.48191721 60.5878749,5.45010893 54.6186486,15.7211329 C50.542549,7.75315904 44.2552305,0.989978214 34.7320191,0.453594771 C22.1521675,-0.255119826 18.0408691,11.9845316 8.69930048,17.1607843 C10.8498993,13.5586057 11.5171542,9.53093682 8.51722311,6.03572985 C8.2590991,5.03747277 7.69005299,3.48300654 6.49047165,2.27363834 C4.56757817,0.335511983 1.75233174,0.0174291939 1.75233174,0.0174291939 C1.75233174,0.0174291939 2.05499735,2.84183007 3.97767356,4.77973856 C5.07252782,5.88344227 6.4563593,6.46143791 7.44518283,6.7546841 C8.56502385,8.01023965 9.30006889,9.48649237 9.3509115,11.245098 C9.40392687,13.0923747 8.63042395,14.872549 7.70895601,16.4281046 C5.96010069,19.3801743 3.28738739,21.9385621 0.481049285,23.88061 C-0.192506624,24.3466231 0.445850556,25.4572985 1.12614202,24.9867102 C3.28499735,23.4928105 5.65069952,21.3782135 7.47125596,18.9738562 C15.4820085,25.3795207 15.7477371,37.0625272 22.5452199,45.445098 C36.3707154,62.4947712 62.5570482,59.3078431 76.4933545,51.1315904 C90.3981558,42.9734205 95.2953418,36.3618736 95.2953418,36.3618736 C95.2953418,36.3618736 86.2799046,37.8960784 83.8974722,36.5379085 Z M25.0228193,21.1928105 C25.091044,21.1932501 25.1714361,21.1939097 25.2574775,21.1943494 C25.1612242,21.19347 25.0838739,21.1930303 25.0228193,21.1928105 Z M25.3687228,21.1947712 C25.3767621,21.1947712 25.3852358,21.1949891 25.3937096,21.1949891 C25.3843667,21.1949891 25.3776312,21.1947712 25.3682883,21.1947712 L25.3678537,21.1947712 C21.0384102,21.1681917 21.0614414,14.4636166 25.3878431,14.4529412 C29.7544409,14.4416122 29.7494436,21.2206972 25.3687228,21.1947712 Z" id="path-1"></path>
        <path d="M3.82684637,5.34357298 C4.87976635,2.82200436 4.0993106,0.091503268 4.0993106,0.091503268 C4.0993106,0.091503268 1.61084743,1.44923747 0.557492897,3.97124183 C-0.495861634,6.49281046 0.285028669,9.22309368 0.285028669,9.22309368 C0.285028669,9.22309368 2.77370911,7.86557734 3.82684637,5.34357298 Z" id="path-3"></path>
        <path d="M5.02494436,3.63093682 C7.74719661,3.483878 9.85890302,1.59019608 9.85890302,1.59019608 C9.85890302,1.59019608 7.55664547,-0.0647058824 4.83439322,0.0819172113 C2.11170641,0.228976035 0,2.12244009 0,2.12244009 C0,2.12244009 2.30225755,3.77777778 5.02494436,3.63093682 Z" id="path-5"></path>
    </defs>
    <g id="Page-1" stroke="none" stroke-width="1" fill="none" fill-rule="evenodd">
        <g id="logo">
            <g id="Group-3">
                <g id="Group" transform="translate(1.086380, 0.871460)">
                    <mask id="mask-2" fill="white">
                        <use xlink:href="#path-1"></use>
                    </mask>
                    <use id="Mask" fill-opacity="0" fill="#000000" fill-rule="nonzero" xlink:href="#path-1"></use>
                    <g mask="url(#mask-2)" id="Group-2">
                        <g transform="translate(-3.131955, -21.437908)">
                            <g transform="translate(1.176471, 1.176471)">
                                <rect id="Rectangle-path" fill="#196127" fill-rule="nonzero" x="0" y="19.8332206" width="8.24150723" height="8.26384194"></rect>
                                <rect id="Rectangle-path" fill="#7BC96F" fill-rule="nonzero" x="0" y="29.749831" width="8.24150723" height="8.26384194"></rect>
                                <rect id="Rectangle-path" fill="#C6E48B" fill-rule="nonzero" x="0" y="39.6664413" width="8.24150723" height="8.26384194"></rect>
                                <rect id="Rectangle-path" fill="#7BC96F" fill-rule="nonzero" x="9.88980867" y="19.8332206" width="8.24150723" height="8.26384194"></rect>
                                <rect id="Rectangle-path" fill="#7BC96F" fill-rule="nonzero" x="9.88980867" y="29.749831" width="8.24150723" height="8.26384194"></rect>
                                <rect id="Rectangle-path" fill="#7BC96F" fill-rule="nonzero" x="9.88980867" y="39.6664413" width="8.24150723" height="8.26384194"></rect>
                                <rect id="Rectangle-path" fill="#7BC96F" fill-rule="nonzero" x="19.7796173" y="19.8332206" width="8.24150723" height="8.26384194"></rect>
                                <rect id="Rectangle-path" fill="#C6E48B" fill-rule="nonzero" x="19.7796173" y="29.749831" width="8.24150723" height="8.26384194"></rect>
                                <rect id="Rectangle-path" fill="#7BC96F" fill-rule="nonzero" x="19.7796173" y="39.6664413" width="8.24150723" height="8.26384194"></rect>
                                <rect id="Rectangle-path" fill="#C6E48B" fill-rule="nonzero" x="29.669426" y="19.8332206" width="8.24150723" height="8.26384194"></rect>
                                <rect id="Rectangle-path" fill="#7BC96F" fill-rule="nonzero" x="29.669426" y="29.749831" width="8.24150723" height="8.26384194"></rect>
                                <rect id="Rectangle-path" fill="#C6E48B" fill-rule="nonzero" x="29.669426" y="39.6664413" width="8.24150723" height="8.26384194"></rect>
                                <rect id="Rectangle-path" fill="#C6E48B" fill-rule="nonzero" x="39.5592347" y="19.8332206" width="8.24150723" height="8.26384194"></rect>
                                <rect id="Rectangle-path" fill="#196127" fill-rule="nonzero" x="39.5592347" y="29.749831" width="8.24150723" height="8.26384194"></rect>
                                <rect id="Rectangle-path" fill="#C6E48B" fill-rule="nonzero" x="39.5592347" y="39.6664413" width="8.24150723" height="8.26384194"></rect>
                            </g>
                            <g transform="translate(74.398516, 24.989107) rotate(-180.000000) translate(-74.398516, -24.989107) translate(50.280869, 0.871460)">
                                <rect id="Rectangle-path" fill="#196127" fill-rule="nonzero" x="0" y="0" width="8.24150723" height="8.26384194"></rect>
                                <rect id="Rectangle-path" fill="#196127" fill-rule="nonzero" x="0" y="9.91661032" width="8.24150723" height="8.26384194"></rect>
                                <rect id="Rectangle-path" fill="#196127" fill-rule="nonzero" x="0" y="19.8332206" width="8.24150723" height="8.26384194"></rect>
                                <rect id="Rectangle-path" fill="#C6E48B" fill-rule="nonzero" x="9.88980867" y="0" width="8.24150723" height="8.26384194"></rect>
                                <rect id="Rectangle-path" fill="#C6E48B" fill-rule="nonzero" x="9.88980867" y="9.91661032" width="8.24150723" height="8.26384194"></rect>
                                <rect id="Rectangle-path" fill="#7BC96F" fill-rule="nonzero" x="9.88980867" y="19.8332206" width="8.24150723" height="8.26384194"></rect>
                                <rect id="Rectangle-path" fill="#239A3B" fill-rule="nonzero" x="19.7796173" y="0" width="8.24150723" height="8.26384194"></rect>
                                <rect id="Rectangle-path" fill="#196127" fill-rule="nonzero" x="19.7796173" y="9.91661032" width="8.24150723" height="8.26384194"></rect>
                                <rect id="Rectangle-path" fill="#7BC96F" fill-rule="nonzero" x="19.7796173" y="19.8332206" width="8.24150723" height="8.26384194"></rect>
                                <rect id="Rectangle-path" fill="#7BC96F" fill-rule="nonzero" x="29.669426" y="0" width="8.24150723" height="8.26384194"></rect>
                                <rect id="Rectangle-path" fill="#7BC96F" fill-rule="nonzero" x="29.669426" y="9.91661032" width="8.24150723" height="8.26384194"></rect>
                                <rect id="Rectangle-path" fill="#C6E48B" fill-rule="nonzero" x="29.669426" y="19.8332206" width="8.24150723" height="8.26384194"></rect>
                                <rect id="Rectangle-path" fill="#C6E48B" fill-rule="nonzero" x="39.5592347" y="0" width="8.24150723" height="8.26384194"></rect>
                                <rect id="Rectangle-path" fill="#7BC96F" fill-rule="nonzero" x="39.5592347" y="9.91661032" width="8.24150723" height="8.26384194"></rect>
                                <rect id="Rectangle-path" fill="#C6E48B" fill-rule="nonzero" x="39.5592347" y="19.8332206" width="8.24150723" height="8.26384194"></rect>
                            </g>
                            <g transform="translate(24.859565, 74.662309) rotate(-180.000000) translate(-24.859565, -74.662309) translate(0.741918, 50.544662)">
                                <rect id="Rectangle-path" fill="#196127" fill-rule="nonzero" x="0" y="19.8332206" width="8.24150723" height="8.26384194"></rect>
                                <rect id="Rectangle-path" fill="#7BC96F" fill-rule="nonzero" x="0" y="29.749831" width="8.24150723" height="8.26384194"></rect>
                                <rect id="Rectangle-path" fill="#C6E48B" fill-rule="nonzero" x="0" y="39.6664413" width="8.24150723" height="8.26384194"></rect>
                                <rect id="Rectangle-path" fill="#7BC96F" fill-rule="nonzero" x="9.88980867" y="19.8332206" width="8.24150723" height="8.26384194"></rect>
                                <rect id="Rectangle-path" fill="#7BC96F" fill-rule="nonzero" x="9.88980867" y="29.749831" width="8.24150723" height="8.26384194"></rect>
                                <rect id="Rectangle-path" fill="#7BC96F" fill-rule="nonzero" x="9.88980867" y="39.6664413" width="8.24150723" height="8.26384194"></rect>
                                <rect id="Rectangle-path" fill="#7BC96F" fill-rule="nonzero" x="19.7796173" y="19.8332206" width="8.24150723" height="8.26384194"></rect>
                                <rect id="Rectangle-path" fill="#C6E48B" fill-rule="nonzero" x="19.7796173" y="29.749831" width="8.24150723" height="8.26384194"></rect>
                                <rect id="Rectangle-path" fill="#7BC96F" fill-rule="nonzero" x="19.7796173" y="39.6664413" width="8.24150723" height="8.26384194"></rect>
                                <rect id="Rectangle-path" fill="#C6E48B" fill-rule="nonzero" x="29.669426" y="19.8332206" width="8.24150723" height="8.26384194"></rect>
                                <rect id="Rectangle-path" fill="#7BC96F" fill-rule="nonzero" x="29.669426" y="29.749831" width="8.24150723" height="8.26384194"></rect>
                                <rect id="Rectangle-path" fill="#C6E48B" fill-rule="nonzero" x="29.669426" y="39.6664413" width="8.24150723" height="8.26384194"></rect>
                                <rect id="Rectangle-path" fill="#C6E48B" fill-rule="nonzero" x="39.5592347" y="19.8332206" width="8.24150723" height="8.26384194"></rect>
                                <rect id="Rectangle-path" fill="#196127" fill-rule="nonzero" x="39.5592347" y="29.749831" width="8.24150723" height="8.26384194"></rect>
                                <rect id="Rectangle-path" fill="#C6E48B" fill-rule="nonzero" x="39.5592347" y="39.6664413" width="8.24150723" height="8.26384194"></rect>
                            </g>
                            <g transform="translate(74.833068, 74.967320) rotate(-360.000000) translate(-74.833068, -74.967320) translate(50.715421, 50.849673)">
                                <rect id="Rectangle-path" fill="#196127" fill-rule="nonzero" x="0" y="0" width="8.24150723" height="8.26384194"></rect>
                                <rect id="Rectangle-path" fill="#196127" fill-rule="nonzero" x="0" y="9.91661032" width="8.24150723" height="8.26384194"></rect>
                                <rect id="Rectangle-path" fill="#196127" fill-rule="nonzero" x="0" y="19.8332206" width="8.24150723" height="8.26384194"></rect>
                                <rect id="Rectangle-path" fill="#C6E48B" fill-rule="nonzero" x="9.88980867" y="0" width="8.24150723" height="8.26384194"></rect>
                                <rect id="Rectangle-path" fill="#C6E48B" fill-rule="nonzero" x="9.88980867" y="9.91661032" width="8.24150723" height="8.26384194"></rect>
                                <rect id="Rectangle-path" fill="#7BC96F" fill-rule="nonzero" x="9.88980867" y="19.8332206" width="8.24150723" height="8.26384194"></rect>
                                <rect id="Rectangle-path" fill="#239A3B" fill-rule="nonzero" x="19.7796173" y="0" width="8.24150723" height="8.26384194"></rect>
                                <rect id="Rectangle-path" fill="#196127" fill-rule="nonzero" x="19.7796173" y="9.91661032" width="8.24150723" height="8.26384194"></rect>
                                <rect id="Rectangle-path" fill="#7BC96F" fill-rule="nonzero" x="19.7796173" y="19.8332206" width="8.24150723" height="8.26384194"></rect>
                                <rect id="Rectangle-path" fill="#7BC96F" fill-rule="nonzero" x="29.669426" y="0" width="8.24150723" height="8.26384194"></rect>
                                <rect id="Rectangle-path" fill="#7BC96F" fill-rule="nonzero" x="29.669426" y="9.91661032" width="8.24150723" height="8.26384194"></rect>
                                <rect id="Rectangle-path" fill="#C6E48B" fill-rule="nonzero" x="29.669426" y="19.8332206" width="8.24150723" height="8.26384194"></rect>
                                <rect id="Rectangle-path" fill="#C6E48B" fill-rule="nonzero" x="39.5592347" y="0" width="8.24150723" height="8.26384194"></rect>
                                <rect id="Rectangle-path" fill="#7BC96F" fill-rule="nonzero" x="39.5592347" y="9.91661032" width="8.24150723" height="8.26384194"></rect>
                                <rect id="Rectangle-path" fill="#C6E48B" fill-rule="nonzero" x="39.5592347" y="19.8332206" width="8.24150723" height="8.26384194"></rect>
                            </g>
                        </g>
                    </g>
                </g>
                <g id="Group" transform="translate(11.515633, 0.000000)">
                    <mask id="mask-4" fill="white">
                        <use xlink:href="#path-3"></use>
                    </mask>
                    <use id="Mask" fill-opacity="0" fill="#000000" fill-rule="nonzero" xlink:href="#path-3"></use>
                    <g mask="url(#mask-4)" id="Group-2">
                        <g transform="translate(-13.561208, -20.566449)">
                            <g transform="translate(1.176471, 1.176471)">
                                <rect id="Rectangle-path" fill="#196127" fill-rule="nonzero" x="0" y="19.8332206" width="8.24150723" height="8.26384194"></rect>
                                <rect id="Rectangle-path" fill="#7BC96F" fill-rule="nonzero" x="0" y="29.749831" width="8.24150723" height="8.26384194"></rect>
                                <rect id="Rectangle-path" fill="#C6E48B" fill-rule="nonzero" x="0" y="39.6664413" width="8.24150723" height="8.26384194"></rect>
                                <rect id="Rectangle-path" fill="#7BC96F" fill-rule="nonzero" x="9.88980867" y="19.8332206" width="8.24150723" height="8.26384194"></rect>
                                <rect id="Rectangle-path" fill="#7BC96F" fill-rule="nonzero" x="9.88980867" y="29.749831" width="8.24150723" height="8.26384194"></rect>
                                <rect id="Rectangle-path" fill="#7BC96F" fill-rule="nonzero" x="9.88980867" y="39.6664413" width="8.24150723" height="8.26384194"></rect>
                                <rect id="Rectangle-path" fill="#7BC96F" fill-rule="nonzero" x="19.7796173" y="19.8332206" width="8.24150723" height="8.26384194"></rect>
                                <rect id="Rectangle-path" fill="#C6E48B" fill-rule="nonzero" x="19.7796173" y="29.749831" width="8.24150723" height="8.26384194"></rect>
                                <rect id="Rectangle-path" fill="#7BC96F" fill-rule="nonzero" x="19.7796173" y="39.6664413" width="8.24150723" height="8.26384194"></rect>
                                <rect id="Rectangle-path" fill="#C6E48B" fill-rule="nonzero" x="29.669426" y="19.8332206" width="8.24150723" height="8.26384194"></rect>
                                <rect id="Rectangle-path" fill="#7BC96F" fill-rule="nonzero" x="29.669426" y="29.749831" width="8.24150723" height="8.26384194"></rect>
                                <rect id="Rectangle-path" fill="#C6E48B" fill-rule="nonzero" x="29.669426" y="39.6664413" width="8.24150723" height="8.26384194"></rect>
                                <rect id="Rectangle-path" fill="#C6E48B" fill-rule="nonzero" x="39.5592347" y="19.8332206" width="8.24150723" height="8.26384194"></rect>
                                <rect id="Rectangle-path" fill="#196127" fill-rule="nonzero" x="39.5592347" y="29.749831" width="8.24150723" height="8.26384194"></rect>
                                <rect id="Rectangle-path" fill="#C6E48B" fill-rule="nonzero" x="39.5592347" y="39.6664413" width="8.24150723" height="8.26384194"></rect>
                            </g>
                            <g transform="translate(74.398516, 24.989107) rotate(-180.000000) translate(-74.398516, -24.989107) translate(50.280869, 0.871460)">
                                <rect id="Rectangle-path" fill="#196127" fill-rule="nonzero" x="0" y="0" width="8.24150723" height="8.26384194"></rect>
                                <rect id="Rectangle-path" fill="#196127" fill-rule="nonzero" x="0" y="9.91661032" width="8.24150723" height="8.26384194"></rect>
                                <rect id="Rectangle-path" fill="#196127" fill-rule="nonzero" x="0" y="19.8332206" width="8.24150723" height="8.26384194"></rect>
                                <rect id="Rectangle-path" fill="#C6E48B" fill-rule="nonzero" x="9.88980867" y="0" width="8.24150723" height="8.26384194"></rect>
                                <rect id="Rectangle-path" fill="#C6E48B" fill-rule="nonzero" x="9.88980867" y="9.91661032" width="8.24150723" height="8.26384194"></rect>
                                <rect id="Rectangle-path" fill="#7BC96F" fill-rule="nonzero" x="9.88980867" y="19.8332206" width="8.24150723" height="8.26384194"></rect>
                                <rect id="Rectangle-path" fill="#239A3B" fill-rule="nonzero" x="19.7796173" y="0" width="8.24150723" height="8.26384194"></rect>
                                <rect id="Rectangle-path" fill="#196127" fill-rule="nonzero" x="19.7796173" y="9.91661032" width="8.24150723" height="8.26384194"></rect>
                                <rect id="Rectangle-path" fill="#7BC96F" fill-rule="nonzero" x="19.7796173" y="19.8332206" width="8.24150723" height="8.26384194"></rect>
                                <rect id="Rectangle-path" fill="#7BC96F" fill-rule="nonzero" x="29.669426" y="0" width="8.24150723" height="8.26384194"></rect>
                                <rect id="Rectangle-path" fill="#7BC96F" fill-rule="nonzero" x="29.669426" y="9.91661032" width="8.24150723" height="8.26384194"></rect>
                                <rect id="Rectangle-path" fill="#C6E48B" fill-rule="nonzero" x="29.669426" y="19.8332206" width="8.24150723" height="8.26384194"></rect>
                                <rect id="Rectangle-path" fill="#C6E48B" fill-rule="nonzero" x="39.5592347" y="0" width="8.24150723" height="8.26384194"></rect>
                                <rect id="Rectangle-path" fill="#7BC96F" fill-rule="nonzero" x="39.5592347" y="9.91661032" width="8.24150723" height="8.26384194"></rect>
                                <rect id="Rectangle-path" fill="#C6E48B" fill-rule="nonzero" x="39.5592347" y="19.8332206" width="8.24150723" height="8.26384194"></rect>
                            </g>
                            <g transform="translate(24.859565, 74.662309) rotate(-180.000000) translate(-24.859565, -74.662309) translate(0.741918, 50.544662)">
                                <rect id="Rectangle-path" fill="#196127" fill-rule="nonzero" x="0" y="19.8332206" width="8.24150723" height="8.26384194"></rect>
                                <rect id="Rectangle-path" fill="#7BC96F" fill-rule="nonzero" x="0" y="29.749831" width="8.24150723" height="8.26384194"></rect>
                                <rect id="Rectangle-path" fill="#C6E48B" fill-rule="nonzero" x="0" y="39.6664413" width="8.24150723" height="8.26384194"></rect>
                                <rect id="Rectangle-path" fill="#7BC96F" fill-rule="nonzero" x="9.88980867" y="19.8332206" width="8.24150723" height="8.26384194"></rect>
                                <rect id="Rectangle-path" fill="#7BC96F" fill-rule="nonzero" x="9.88980867" y="29.749831" width="8.24150723" height="8.26384194"></rect>
                                <rect id="Rectangle-path" fill="#7BC96F" fill-rule="nonzero" x="9.88980867" y="39.6664413" width="8.24150723" height="8.26384194"></rect>
                                <rect id="Rectangle-path" fill="#7BC96F" fill-rule="nonzero" x="19.7796173" y="19.8332206" width="8.24150723" height="8.26384194"></rect>
                                <rect id="Rectangle-path" fill="#C6E48B" fill-rule="nonzero" x="19.7796173" y="29.749831" width="8.24150723" height="8.26384194"></rect>
                                <rect id="Rectangle-path" fill="#7BC96F" fill-rule="nonzero" x="19.7796173" y="39.6664413" width="8.24150723" height="8.26384194"></rect>
                                <rect id="Rectangle-path" fill="#C6E48B" fill-rule="nonzero" x="29.669426" y="19.8332206" width="8.24150723" height="8.26384194"></rect>
                                <rect id="Rectangle-path" fill="#7BC96F" fill-rule="nonzero" x="29.669426" y="29.749831" width="8.24150723" height="8.26384194"></rect>
                                <rect id="Rectangle-path" fill="#C6E48B" fill-rule="nonzero" x="29.669426" y="39.6664413" width="8.24150723" height="8.26384194"></rect>
                                <rect id="Rectangle-path" fill="#C6E48B" fill-rule="nonzero" x="39.5592347" y="19.8332206" width="8.24150723" height="8.26384194"></rect>
                                <rect id="Rectangle-path" fill="#196127" fill-rule="nonzero" x="39.5592347" y="29.749831" width="8.24150723" height="8.26384194"></rect>
                                <rect id="Rectangle-path" fill="#C6E48B" fill-rule="nonzero" x="39.5592347" y="39.6664413" width="8.24150723" height="8.26384194"></rect>
                            </g>
                            <g transform="translate(74.833068, 74.967320) rotate(-360.000000) translate(-74.833068, -74.967320) translate(50.715421, 50.849673)">
                                <rect id="Rectangle-path" fill="#196127" fill-rule="nonzero" x="0" y="0" width="8.24150723" height="8.26384194"></rect>
                                <rect id="Rectangle-path" fill="#196127" fill-rule="nonzero" x="0" y="9.91661032" width="8.24150723" height="8.26384194"></rect>
                                <rect id="Rectangle-path" fill="#196127" fill-rule="nonzero" x="0" y="19.8332206" width="8.24150723" height="8.26384194"></rect>
                                <rect id="Rectangle-path" fill="#C6E48B" fill-rule="nonzero" x="9.88980867" y="0" width="8.24150723" height="8.26384194"></rect>
                                <rect id="Rectangle-path" fill="#C6E48B" fill-rule="nonzero" x="9.88980867" y="9.91661032" width="8.24150723" height="8.26384194"></rect>
                                <rect id="Rectangle-path" fill="#7BC96F" fill-rule="nonzero" x="9.88980867" y="19.8332206" width="8.24150723" height="8.26384194"></rect>
                                <rect id="Rectangle-path" fill="#239A3B" fill-rule="nonzero" x="19.7796173" y="0" width="8.24150723" height="8.26384194"></rect>
                                <rect id="Rectangle-path" fill="#196127" fill-rule="nonzero" x="19.7796173" y="9.91661032" width="8.24150723" height="8.26384194"></rect>
                                <rect id="Rectangle-path" fill="#7BC96F" fill-rule="nonzero" x="19.7796173" y="19.8332206" width="8.24150723" height="8.26384194"></rect>
                                <rect id="Rectangle-path" fill="#7BC96F" fill-rule="nonzero" x="29.669426" y="0" width="8.24150723" height="8.26384194"></rect>
                                <rect id="Rectangle-path" fill="#7BC96F" fill-rule="nonzero" x="29.669426" y="9.91661032" width="8.24150723" height="8.26384194"></rect>
                                <rect id="Rectangle-path" fill="#C6E48B" fill-rule="nonzero" x="29.669426" y="19.8332206" width="8.24150723" height="8.26384194"></rect>
                                <rect id="Rectangle-path" fill="#C6E48B" fill-rule="nonzero" x="39.5592347" y="0" width="8.24150723" height="8.26384194"></rect>
                                <rect id="Rectangle-path" fill="#7BC96F" fill-rule="nonzero" x="39.5592347" y="9.91661032" width="8.24150723" height="8.26384194"></rect>
                                <rect id="Rectangle-path" fill="#C6E48B" fill-rule="nonzero" x="39.5592347" y="19.8332206" width="8.24150723" height="8.26384194"></rect>
                            </g>
                        </g>
                    </g>
                </g>
                <g id="Group" transform="translate(0.000000, 9.150327)">
                    <mask id="mask-6" fill="white">
                        <use xlink:href="#path-5"></use>
                    </mask>
                    <use id="Mask" fill-opacity="0" fill="#000000" fill-rule="nonzero" xlink:href="#path-5"></use>
                    <g mask="url(#mask-6)" id="Group-2">
                        <g transform="translate(-2.045575, -29.716776)">
                            <g transform="translate(1.176471, 1.176471)">
                                <rect id="Rectangle-path" fill="#196127" fill-rule="nonzero" x="0" y="19.8332206" width="8.24150723" height="8.26384194"></rect>
                                <rect id="Rectangle-path" fill="#7BC96F" fill-rule="nonzero" x="0" y="29.749831" width="8.24150723" height="8.26384194"></rect>
                                <rect id="Rectangle-path" fill="#C6E48B" fill-rule="nonzero" x="0" y="39.6664413" width="8.24150723" height="8.26384194"></rect>
                                <rect id="Rectangle-path" fill="#7BC96F" fill-rule="nonzero" x="9.88980867" y="19.8332206" width="8.24150723" height="8.26384194"></rect>
                                <rect id="Rectangle-path" fill="#7BC96F" fill-rule="nonzero" x="9.88980867" y="29.749831" width="8.24150723" height="8.26384194"></rect>
                                <rect id="Rectangle-path" fill="#7BC96F" fill-rule="nonzero" x="9.88980867" y="39.6664413" width="8.24150723" height="8.26384194"></rect>
                                <rect id="Rectangle-path" fill="#7BC96F" fill-rule="nonzero" x="19.7796173" y="19.8332206" width="8.24150723" height="8.26384194"></rect>
                                <rect id="Rectangle-path" fill="#C6E48B" fill-rule="nonzero" x="19.7796173" y="29.749831" width="8.24150723" height="8.26384194"></rect>
                                <rect id="Rectangle-path" fill="#7BC96F" fill-rule="nonzero" x="19.7796173" y="39.6664413" width="8.24150723" height="8.26384194"></rect>
                                <rect id="Rectangle-path" fill="#C6E48B" fill-rule="nonzero" x="29.669426" y="19.8332206" width="8.24150723" height="8.26384194"></rect>
                                <rect id="Rectangle-path" fill="#7BC96F" fill-rule="nonzero" x="29.669426" y="29.749831" width="8.24150723" height="8.26384194"></rect>
                                <rect id="Rectangle-path" fill="#C6E48B" fill-rule="nonzero" x="29.669426" y="39.6664413" width="8.24150723" height="8.26384194"></rect>
                                <rect id="Rectangle-path" fill="#C6E48B" fill-rule="nonzero" x="39.5592347" y="19.8332206" width="8.24150723" height="8.26384194"></rect>
                                <rect id="Rectangle-path" fill="#196127" fill-rule="nonzero" x="39.5592347" y="29.749831" width="8.24150723" height="8.26384194"></rect>
                                <rect id="Rectangle-path" fill="#C6E48B" fill-rule="nonzero" x="39.5592347" y="39.6664413" width="8.24150723" height="8.26384194"></rect>
                            </g>
                            <g transform="translate(74.398516, 24.989107) rotate(-180.000000) translate(-74.398516, -24.989107) translate(50.280869, 0.871460)">
                                <rect id="Rectangle-path" fill="#196127" fill-rule="nonzero" x="0" y="0" width="8.24150723" height="8.26384194"></rect>
                                <rect id="Rectangle-path" fill="#196127" fill-rule="nonzero" x="0" y="9.91661032" width="8.24150723" height="8.26384194"></rect>
                                <rect id="Rectangle-path" fill="#196127" fill-rule="nonzero" x="0" y="19.8332206" width="8.24150723" height="8.26384194"></rect>
                                <rect id="Rectangle-path" fill="#C6E48B" fill-rule="nonzero" x="9.88980867" y="0" width="8.24150723" height="8.26384194"></rect>
                                <rect id="Rectangle-path" fill="#C6E48B" fill-rule="nonzero" x="9.88980867" y="9.91661032" width="8.24150723" height="8.26384194"></rect>
                                <rect id="Rectangle-path" fill="#7BC96F" fill-rule="nonzero" x="9.88980867" y="19.8332206" width="8.24150723" height="8.26384194"></rect>
                                <rect id="Rectangle-path" fill="#239A3B" fill-rule="nonzero" x="19.7796173" y="0" width="8.24150723" height="8.26384194"></rect>
                                <rect id="Rectangle-path" fill="#196127" fill-rule="nonzero" x="19.7796173" y="9.91661032" width="8.24150723" height="8.26384194"></rect>
                                <rect id="Rectangle-path" fill="#7BC96F" fill-rule="nonzero" x="19.7796173" y="19.8332206" width="8.24150723" height="8.26384194"></rect>
                                <rect id="Rectangle-path" fill="#7BC96F" fill-rule="nonzero" x="29.669426" y="0" width="8.24150723" height="8.26384194"></rect>
                                <rect id="Rectangle-path" fill="#7BC96F" fill-rule="nonzero" x="29.669426" y="9.91661032" width="8.24150723" height="8.26384194"></rect>
                                <rect id="Rectangle-path" fill="#C6E48B" fill-rule="nonzero" x="29.669426" y="19.8332206" width="8.24150723" height="8.26384194"></rect>
                                <rect id="Rectangle-path" fill="#C6E48B" fill-rule="nonzero" x="39.5592347" y="0" width="8.24150723" height="8.26384194"></rect>
                                <rect id="Rectangle-path" fill="#7BC96F" fill-rule="nonzero" x="39.5592347" y="9.91661032" width="8.24150723" height="8.26384194"></rect>
                                <rect id="Rectangle-path" fill="#C6E48B" fill-rule="nonzero" x="39.5592347" y="19.8332206" width="8.24150723" height="8.26384194"></rect>
                            </g>
                            <g transform="translate(24.859565, 74.662309) rotate(-180.000000) translate(-24.859565, -74.662309) translate(0.741918, 50.544662)">
                                <rect id="Rectangle-path" fill="#196127" fill-rule="nonzero" x="0" y="19.8332206" width="8.24150723" height="8.26384194"></rect>
                                <rect id="Rectangle-path" fill="#7BC96F" fill-rule="nonzero" x="0" y="29.749831" width="8.24150723" height="8.26384194"></rect>
                                <rect id="Rectangle-path" fill="#C6E48B" fill-rule="nonzero" x="0" y="39.6664413" width="8.24150723" height="8.26384194"></rect>
                                <rect id="Rectangle-path" fill="#7BC96F" fill-rule="nonzero" x="9.88980867" y="19.8332206" width="8.24150723" height="8.26384194"></rect>
                                <rect id="Rectangle-path" fill="#7BC96F" fill-rule="nonzero" x="9.88980867" y="29.749831" width="8.24150723" height="8.26384194"></rect>
                                <rect id="Rectangle-path" fill="#7BC96F" fill-rule="nonzero" x="9.88980867" y="39.6664413" width="8.24150723" height="8.26384194"></rect>
                                <rect id="Rectangle-path" fill="#7BC96F" fill-rule="nonzero" x="19.7796173" y="19.8332206" width="8.24150723" height="8.26384194"></rect>
                                <rect id="Rectangle-path" fill="#C6E48B" fill-rule="nonzero" x="19.7796173" y="29.749831" width="8.24150723" height="8.26384194"></rect>
                                <rect id="Rectangle-path" fill="#7BC96F" fill-rule="nonzero" x="19.7796173" y="39.6664413" width="8.24150723" height="8.26384194"></rect>
                                <rect id="Rectangle-path" fill="#C6E48B" fill-rule="nonzero" x="29.669426" y="19.8332206" width="8.24150723" height="8.26384194"></rect>
                                <rect id="Rectangle-path" fill="#7BC96F" fill-rule="nonzero" x="29.669426" y="29.749831" width="8.24150723" height="8.26384194"></rect>
                                <rect id="Rectangle-path" fill="#C6E48B" fill-rule="nonzero" x="29.669426" y="39.6664413" width="8.24150723" height="8.26384194"></rect>
                                <rect id="Rectangle-path" fill="#C6E48B" fill-rule="nonzero" x="39.5592347" y="19.8332206" width="8.24150723" height="8.26384194"></rect>
                                <rect id="Rectangle-path" fill="#196127" fill-rule="nonzero" x="39.5592347" y="29.749831" width="8.24150723" height="8.26384194"></rect>
                                <rect id="Rectangle-path" fill="#C6E48B" fill-rule="nonzero" x="39.5592347" y="39.6664413" width="8.24150723" height="8.26384194"></rect>
                            </g>
                            <g transform="translate(74.833068, 74.967320) rotate(-360.000000) translate(-74.833068, -74.967320) translate(50.715421, 50.849673)">
                                <rect id="Rectangle-path" fill="#196127" fill-rule="nonzero" x="0" y="0" width="8.24150723" height="8.26384194"></rect>
                                <rect id="Rectangle-path" fill="#196127" fill-rule="nonzero" x="0" y="9.91661032" width="8.24150723" height="8.26384194"></rect>
                                <rect id="Rectangle-path" fill="#196127" fill-rule="nonzero" x="0" y="19.8332206" width="8.24150723" height="8.26384194"></rect>
                                <rect id="Rectangle-path" fill="#C6E48B" fill-rule="nonzero" x="9.88980867" y="0" width="8.24150723" height="8.26384194"></rect>
                                <rect id="Rectangle-path" fill="#C6E48B" fill-rule="nonzero" x="9.88980867" y="9.91661032" width="8.24150723" height="8.26384194"></rect>
                                <rect id="Rectangle-path" fill="#7BC96F" fill-rule="nonzero" x="9.88980867" y="19.8332206" width="8.24150723" height="8.26384194"></rect>
                                <rect id="Rectangle-path" fill="#239A3B" fill-rule="nonzero" x="19.7796173" y="0" width="8.24150723" height="8.26384194"></rect>
                                <rect id="Rectangle-path" fill="#196127" fill-rule="nonzero" x="19.7796173" y="9.91661032" width="8.24150723" height="8.26384194"></rect>
                                <rect id="Rectangle-path" fill="#7BC96F" fill-rule="nonzero" x="19.7796173" y="19.8332206" width="8.24150723" height="8.26384194"></rect>
                                <rect id="Rectangle-path" fill="#7BC96F" fill-rule="nonzero" x="29.669426" y="0" width="8.24150723" height="8.26384194"></rect>
                                <rect id="Rectangle-path" fill="#7BC96F" fill-rule="nonzero" x="29.669426" y="9.91661032" width="8.24150723" height="8.26384194"></rect>
                                <rect id="Rectangle-path" fill="#C6E48B" fill-rule="nonzero" x="29.669426" y="19.8332206" width="8.24150723" height="8.26384194"></rect>
                                <rect id="Rectangle-path" fill="#C6E48B" fill-rule="nonzero" x="39.5592347" y="0" width="8.24150723" height="8.26384194"></rect>
                                <rect id="Rectangle-path" fill="#7BC96F" fill-rule="nonzero" x="39.5592347" y="9.91661032" width="8.24150723" height="8.26384194"></rect>
                                <rect id="Rectangle-path" fill="#C6E48B" fill-rule="nonzero" x="39.5592347" y="19.8332206" width="8.24150723" height="8.26384194"></rect>
                            </g>
                        </g>
                    </g>
                </g>
            </g>
            <path d="M236.78,36.37 L236.78,38.86 C236.299998,39.2000017 235.745003,39.4449993 235.115,39.595 C234.484997,39.7450008 233.880003,39.82 233.3,39.82 C231.839993,39.82 230.680004,39.4650035 229.82,38.755 C228.959996,38.0449964 228.53,36.9300076 228.53,35.41 L228.53,26.89 L225.5,26.89 L225.5,24.22 L228.53,24.22 L228.53,20.44 L231.8,18.88 L231.8,24.22 L236.57,24.22 L236.57,26.89 L231.8,26.89 L231.8,35.17 C231.8,36.4500064 232.499993,37.09 233.9,37.09 C234.400002,37.09 234.854998,37.0150007 235.265,36.865 C235.675002,36.7149992 236.049998,36.5500009 236.39,36.37 L236.78,36.37 Z M251.88,36.37 L251.88,38.86 C251.399998,39.2000017 250.845003,39.4449993 250.215,39.595 C249.584997,39.7450008 248.980003,39.82 248.4,39.82 C246.939993,39.82 245.780004,39.4650035 244.92,38.755 C244.059996,38.0449964 243.63,36.9300076 243.63,35.41 L243.63,26.89 L240.6,26.89 L240.6,24.22 L243.63,24.22 L243.63,20.44 L246.9,18.88 L246.9,24.22 L251.67,24.22 L251.67,26.89 L246.9,26.89 L246.9,35.17 C246.9,36.4500064 247.599993,37.09 249,37.09 C249.500002,37.09 249.954998,37.0150007 250.365,36.865 C250.775002,36.7149992 251.149998,36.5500009 251.49,36.37 L251.88,36.37 Z M261.64,26.53 C259.919991,26.53 258.860002,27.5799895 258.46,29.68 L264.25,29.59 C264.049999,27.5499898 263.180008,26.53 261.64,26.53 Z M261.73,23.89 C262.750005,23.89 263.629996,24.0649982 264.37,24.415 C265.110004,24.7650017 265.724998,25.244997 266.215,25.855 C266.705002,26.465003 267.064999,27.1949958 267.295,28.045 C267.525001,28.8950042 267.64,29.8099951 267.64,30.79 L267.64,32.2 L258.37,32.2 C258.37,32.9000035 258.434999,33.549997 258.565,34.15 C258.695001,34.750003 258.904999,35.2699978 259.195,35.71 C259.485001,36.1500022 259.859998,36.4999987 260.32,36.76 C260.780002,37.0200013 261.349997,37.15 262.03,37.15 C262.350002,37.15 262.709998,37.1100004 263.11,37.03 C263.510002,36.9499996 263.919998,36.8450007 264.34,36.715 C264.760002,36.5849994 265.169998,36.420001 265.57,36.22 C265.970002,36.019999 266.329998,35.8000012 266.65,35.56 L267.07,35.56 L267.07,38.44 C266.329996,38.9600026 265.565004,39.3349988 264.775,39.565 C263.984996,39.7950012 263.050005,39.91 261.97,39.91 C260.729994,39.91 259.675004,39.715002 258.805,39.325 C257.934996,38.9349981 257.215003,38.3800036 256.645,37.66 C256.074997,36.9399964 255.660001,36.0850049 255.4,35.095 C255.139999,34.104995 255.01,33.010006 255.01,31.81 C255.01,30.5899939 255.144999,29.4950049 255.415,28.525 C255.685001,27.5549951 256.094997,26.7250034 256.645,26.035 C257.195003,25.3449966 257.889996,24.8150019 258.73,24.445 C259.570004,24.0749981 260.569994,23.89 261.73,23.89 Z M274.82,24.22 L274.94,26.89 C275.300002,26.0299957 275.884996,25.3150029 276.695,24.745 C277.505004,24.1749971 278.409995,23.89 279.41,23.89 C280.070003,23.89 280.714997,23.9699992 281.345,24.13 C281.975003,24.2900008 282.579997,24.569998 283.16,24.97 L283.16,27.91 L282.77,27.91 C282.549999,27.7699993 282.290002,27.6350007 281.99,27.505 C281.689999,27.3749994 281.370002,27.2600005 281.03,27.16 C280.689998,27.0599995 280.355002,26.9750003 280.025,26.905 C279.694998,26.8349997 279.390001,26.8 279.11,26.8 C278.489997,26.8 277.940002,26.9399986 277.46,27.22 C276.979998,27.5000014 276.570002,27.8799976 276.23,28.36 C275.889998,28.8400024 275.630001,29.3899969 275.45,30.01 C275.269999,30.6300031 275.18,31.2699967 275.18,31.93 L275.18,39.52 L271.91,39.52 L271.91,24.22 L274.82,24.22 Z" id="tter" fill="#7BC96F"></path>
            <path d="M168.82,24.22 L168.94,26.89 C169.300002,26.0299957 169.884996,25.3150029 170.695,24.745 C171.505004,24.1749971 172.409995,23.89 173.41,23.89 C174.070003,23.89 174.714997,23.9699992 175.345,24.13 C175.975003,24.2900008 176.579997,24.569998 177.16,24.97 L177.16,27.91 L176.77,27.91 C176.549999,27.7699993 176.290001,27.6350007 175.99,27.505 C175.689999,27.3749994 175.370002,27.2600005 175.03,27.16 C174.689998,27.0599995 174.355002,26.9750003 174.025,26.905 C173.694998,26.8349997 173.390001,26.8 173.11,26.8 C172.489997,26.8 171.940002,26.9399986 171.46,27.22 C170.979998,27.5000014 170.570002,27.8799976 170.23,28.36 C169.889998,28.8400024 169.630001,29.3899969 169.45,30.01 C169.269999,30.6300031 169.18,31.2699967 169.18,31.93 L169.18,39.52 L165.91,39.52 L165.91,24.22 L168.82,24.22 Z M187.55,24.22 L187.55,36.88 L191.63,36.88 L191.63,39.52 L179.84,39.52 L179.84,36.88 L184.25,36.88 L184.25,26.89 L180.83,26.89 L180.83,24.22 L187.55,24.22 Z M183.29,18.94 C183.29,18.2799967 183.519998,17.7200023 183.98,17.26 C184.440002,16.7999977 184.989997,16.57 185.63,16.57 C186.270003,16.57 186.819998,16.7999977 187.28,17.26 C187.740002,17.7200023 187.97,18.2799967 187.97,18.94 C187.97,19.6000033 187.740002,20.1599977 187.28,20.62 C186.819998,21.0800023 186.270003,21.31 185.63,21.31 C184.989997,21.31 184.440002,21.0800023 183.98,20.62 C183.519998,20.1599977 183.29,19.6000033 183.29,18.94 Z M198.24,33.34 C198.24,34.5200059 198.504997,35.4599965 199.035,36.16 C199.565003,36.8600035 200.209996,37.21 200.97,37.21 C201.930005,37.21 202.634998,36.8000041 203.085,35.98 C203.535002,35.1599959 203.76,33.8000095 203.76,31.9 C203.76,30.0199906 203.510003,28.6550042 203.01,27.805 C202.509998,26.9549958 201.840004,26.53 201,26.53 C200.459997,26.53 200.010002,26.6449989 199.65,26.875 C199.289998,27.1050011 199.005001,27.4099981 198.795,27.79 C198.584999,28.1700019 198.44,28.5999976 198.36,29.08 C198.28,29.5600024 198.24,30.0399976 198.24,30.52 L198.24,33.34 Z M201.66,23.92 C202.700005,23.92 203.564997,24.1549976 204.255,24.625 C204.945003,25.0950023 205.494998,25.7049962 205.905,26.455 C206.315002,27.2050037 206.604999,28.0499953 206.775,28.99 C206.945001,29.9300047 207.03,30.8699953 207.03,31.81 C207.03,32.810005 206.950001,33.7949952 206.79,34.765 C206.629999,35.7350048 206.340002,36.5999962 205.92,37.36 C205.499998,38.1200038 204.925004,38.7349976 204.195,39.205 C203.464996,39.6750023 202.530006,39.91 201.39,39.91 C200.829997,39.91 200.235003,39.715002 199.605,39.325 C198.974997,38.9349981 198.500002,38.340004 198.18,37.54 L197.97,39.52 L195,39.52 L195,18.22 L198.24,18.22 L198.24,26.11 C198.660002,25.3699963 199.179997,24.8200018 199.8,24.46 C200.420003,24.0999982 201.039997,23.92 201.66,23.92 Z M209.95,24.22 L213.19,24.22 L213.19,33.37 C213.19,34.7900071 213.354998,35.7849971 213.685,36.355 C214.015002,36.9250028 214.589996,37.21 215.41,37.21 C215.830002,37.21 216.214998,37.1000011 216.565,36.88 C216.915002,36.6599989 217.219999,36.350002 217.48,35.95 C217.740001,35.549998 217.944999,35.0750027 218.095,34.525 C218.245001,33.9749973 218.32,33.3700033 218.32,32.71 L218.32,24.22 L221.56,24.22 L221.56,39.52 L218.5,39.52 L218.41,37.48 C217.969998,38.280004 217.425003,38.8699981 216.775,39.25 C216.124997,39.6300019 215.470003,39.82 214.81,39.82 C213.789995,39.82 212.965003,39.6600016 212.335,39.34 C211.704997,39.0199984 211.210002,38.5700029 210.85,37.99 C210.489998,37.4099971 210.250001,36.725004 210.13,35.935 C210.009999,35.1449961 209.95,34.2700048 209.95,33.31 L209.95,24.22 Z" id="ribu" fill="#239A3B"></path>
            <path d="M116.83,35.35 L116.83,38.38 C116.149997,38.9000026 115.430004,39.2799988 114.67,39.52 C113.909996,39.7600012 113.030005,39.88 112.03,39.88 C110.589993,39.88 109.370005,39.6250025 108.37,39.115 C107.369995,38.6049974 106.560003,37.8900046 105.94,36.97 C105.319997,36.0499954 104.870001,34.9500064 104.59,33.67 C104.309999,32.3899936 104.17,30.9900076 104.17,29.47 C104.17,27.9499924 104.304999,26.5400065 104.575,25.24 C104.845001,23.9399935 105.289997,22.8150047 105.91,21.865 C106.530003,20.9149953 107.334995,20.1700027 108.325,19.63 C109.315005,19.0899973 110.519993,18.82 111.94,18.82 C112.880005,18.82 113.699996,18.914999 114.4,19.105 C115.100003,19.295001 115.799996,19.5599983 116.5,19.9 L116.5,23.08 L116.05,23.08 C115.409997,22.5999976 114.765003,22.2550011 114.115,22.045 C113.464997,21.8349989 112.750004,21.73 111.97,21.73 C110.589993,21.73 109.530004,22.3749935 108.79,23.665 C108.049996,24.9550064 107.68,26.8199878 107.68,29.26 C107.68,31.8200128 108.059996,33.7499935 108.82,35.05 C109.580004,36.3500065 110.679993,37 112.12,37 C112.960004,37 113.714997,36.8700013 114.385,36.61 C115.055003,36.3499987 115.709997,35.9300029 116.35,35.35 L116.83,35.35 Z M125.63,39.91 C124.389994,39.91 123.355004,39.7000021 122.525,39.28 C121.694996,38.8599979 121.035002,38.2900036 120.545,37.57 C120.054998,36.8499964 119.710001,36.0050048 119.51,35.035 C119.309999,34.0649952 119.21,33.0200056 119.21,31.9 C119.21,30.7799944 119.314999,29.7350048 119.525,28.765 C119.735001,27.7949952 120.084998,26.9500036 120.575,26.23 C121.065002,25.5099964 121.719996,24.9400021 122.54,24.52 C123.360004,24.0999979 124.389994,23.89 125.63,23.89 C126.830006,23.89 127.834996,24.0999979 128.645,24.52 C129.455004,24.9400021 130.109998,25.5099964 130.61,26.23 C131.110003,26.9500036 131.469999,27.7999951 131.69,28.78 C131.910001,29.7600049 132.02,30.7999945 132.02,31.9 C132.02,33.0200056 131.915001,34.0649952 131.705,35.035 C131.494999,36.0050048 131.145002,36.8499964 130.655,37.57 C130.164998,38.2900036 129.510004,38.8599979 128.69,39.28 C127.869996,39.7000021 126.850006,39.91 125.63,39.91 Z M125.63,37.39 C126.710005,37.39 127.499998,36.9000049 128,35.92 C128.500003,34.9399951 128.75,33.6000085 128.75,31.9 C128.75,30.1799914 128.500003,28.8350048 128,27.865 C127.499998,26.8949951 126.710005,26.41 125.63,26.41 C124.509994,26.41 123.705002,26.8949951 123.215,27.865 C122.724998,28.8350048 122.48,30.1799914 122.48,31.9 C122.48,33.6000085 122.724998,34.9399951 123.215,35.92 C123.705002,36.9000049 124.509994,37.39 125.63,37.39 Z M146.55,39.52 L143.31,39.52 L143.31,30.37 C143.31,28.9499929 143.145002,27.9550028 142.815,27.385 C142.484998,26.8149971 141.910004,26.53 141.09,26.53 C140.669998,26.53 140.285002,26.6399989 139.935,26.86 C139.584998,27.0800011 139.280001,27.389998 139.02,27.79 C138.759999,28.190002 138.555001,28.6649972 138.405,29.215 C138.254999,29.7650028 138.18,30.3699967 138.18,31.03 L138.18,39.52 L134.94,39.52 L134.94,24.22 L138,24.22 L138.09,26.26 C138.530002,25.459996 139.074997,24.8700019 139.725,24.49 C140.375003,24.1099981 141.029997,23.92 141.69,23.92 C142.710005,23.92 143.534997,24.0799984 144.165,24.4 C144.795003,24.7200016 145.289998,25.1699971 145.65,25.75 C146.010002,26.3300029 146.249999,27.0149961 146.37,27.805 C146.490001,28.595004 146.55,29.4699952 146.55,30.43 L146.55,39.52 Z M161.38,36.37 L161.38,38.86 C160.899998,39.2000017 160.345003,39.4449993 159.715,39.595 C159.084997,39.7450008 158.480003,39.82 157.9,39.82 C156.439993,39.82 155.280004,39.4650035 154.42,38.755 C153.559996,38.0449964 153.13,36.9300076 153.13,35.41 L153.13,26.89 L150.1,26.89 L150.1,24.22 L153.13,24.22 L153.13,20.44 L156.4,18.88 L156.4,24.22 L161.17,24.22 L161.17,26.89 L156.4,26.89 L156.4,35.17 C156.4,36.4500064 157.099993,37.09 158.5,37.09 C159.000003,37.09 159.454998,37.0150007 159.865,36.865 C160.275002,36.7149992 160.649998,36.5500009 160.99,36.37 L161.38,36.37 Z" id="Cont" fill="#196127"></path>
        </g>
    </g>
</svg>